<svg width="250" height="184" viewBox="0 0 250 184" fill="none" xmlns="http://www.w3.org/2000/svg">
<g clip-path="url(#clip0_465_12)">
<g opacity="0.61">
<path d="M52.985 181.79C39.0887 176.874 26.8001 167.516 18.3682 155.424C6.20374 137.981 2.8589 113.208 14.615 95.4858C30.1605 72.0563 64.2345 68.9183 83.7452 48.6734C89.4216 42.7851 93.635 35.6508 98.8823 29.3747C117.943 6.55527 149.986 -3.09153 179.458 0.863348C198.344 3.39654 217.218 11.5906 228.773 26.7381C233.669 33.1589 237.096 40.5931 239.671 48.2443C248.082 73.2144 247.451 101.266 237.158 125.522C226.865 149.774 206.843 169.9 182.328 179.557" fill="#E1ECF2"/>
</g>
<path d="M242.912 180.973C242.912 182.503 189.622 183.744 123.883 183.744C58.1445 183.744 4.85449 182.503 4.85449 180.973C4.85449 179.443 58.1445 178.202 123.883 178.202C189.622 178.202 242.912 179.443 242.912 180.973Z" fill="#E1ECF2"/>
<path opacity="0.97" d="M249.473 95.1032C248.966 94.6327 248.196 94.6276 247.498 94.6482C238.301 94.9274 229.057 95.2118 219.933 97.0884V51.7236C219.933 48.6528 218.635 45.8921 216.567 43.9431C214.649 42.1337 212.07 41.017 209.221 41.017H107.345C107.314 40.7688 107.289 40.5207 107.252 40.2725C107.252 40.2622 107.252 40.257 107.252 40.2467C107.175 39.7607 107.092 39.2748 106.989 38.7888C106.834 38.0599 106.637 37.3258 106.389 36.6123C106.456 36.5658 106.529 36.5193 106.591 36.4676C106.591 36.4676 106.591 36.4624 106.601 36.4572C108.478 35.7438 109.961 34.5186 110.514 32.4765C111.228 29.8503 110.023 27.8858 108.017 26.6037C105.412 22.685 97.7968 21.8061 94.6898 24.2307C94.6898 24.2307 88.8014 20.9272 86.2424 27.1C86.2424 27.1 77.6606 31.7734 83.156 41.0118H57.7466C51.9513 41.0118 47.2571 45.706 47.2571 51.5013V80.7519C46.5127 79.9196 45.7475 79.1079 44.9669 78.3118C45.9802 72.413 46.4972 66.4316 46.5127 60.4502C46.5127 59.6334 46.3421 58.5942 45.5511 58.3978C45.2409 58.3202 44.9152 58.4133 44.6154 58.527C42.6508 59.2818 41.2757 61.1688 40.7122 63.1953C40.1538 65.2219 40.3089 67.3828 40.6967 69.4508C41.255 72.4286 42.5371 74.8118 44.026 77.376C42.5319 75.9078 40.9758 74.5068 39.3577 73.1782C38.8666 72.7749 38.3651 72.3769 37.8585 71.9891C36.6177 67.3415 32.3423 64.0122 27.9015 62.058C24.8255 60.7087 21.4548 59.8091 18.1203 60.2279C17.5361 60.3003 16.9312 60.4295 16.4711 60.7966C15.7111 61.4066 15.556 62.5543 15.8714 63.4745C16.1868 64.3999 16.8847 65.1392 17.6033 65.7957C22.923 70.6915 30.5484 71.5187 37.7292 72.4596C38.6288 73.1575 39.5076 73.8761 40.371 74.6205C41.8702 75.913 43.3022 77.2726 44.6826 78.684C44.0622 78.3376 43.3849 78.0636 42.7129 77.831C37.4242 75.9905 31.4996 75.458 26.2523 77.4174C25.7147 77.619 25.0788 78.0378 25.2132 78.5961C25.3062 78.9683 25.7043 79.1648 26.061 79.3044C32.4095 81.7755 39.5748 82.096 46.1198 80.2039C46.5023 80.6123 46.8901 81.0207 47.2571 81.4395V85.1979C45.6286 84.3552 43.9795 83.7038 42.4802 83.3833C38.5667 82.5406 34.3999 82.9335 30.7138 84.4845C30.2641 84.6706 30.2279 85.3013 30.6518 85.5391C34.2965 87.5967 38.0859 89.4268 42.1184 90.5383C43.9123 91.0346 45.5976 91.4171 47.2623 91.6239V93.3713C47.0193 93.3558 46.7711 93.3403 46.5282 93.33C43.173 93.211 39.7041 93.6246 36.7625 95.2428C36.3851 95.4496 36.0077 95.6925 35.7233 96.0027C35.6044 95.6615 35.4959 95.3203 35.3718 94.9791C35.0978 94.2088 34.5912 93.2834 33.7795 93.3713C33.4641 93.4023 33.185 93.5988 32.942 93.8056C31.3445 95.1756 30.6776 97.4141 30.8327 99.5078C30.9827 101.607 31.8563 103.587 32.9161 105.407C34.4412 108.028 36.4419 109.842 38.7115 111.755C36.8142 110.871 34.8755 110.07 32.9058 109.361C32.3061 109.144 31.7013 108.943 31.0964 108.741C28.3719 104.776 23.2228 103.075 18.3839 102.723C15.0339 102.48 11.5546 102.765 8.55617 104.28C8.02885 104.543 7.50153 104.864 7.19135 105.365C6.67954 106.192 6.91735 107.33 7.52221 108.09C8.13225 108.855 9.03179 109.315 9.93133 109.697C16.5848 112.525 24.05 110.752 31.1274 109.232C32.2079 109.589 33.278 109.971 34.3378 110.385C36.1886 111.104 38.0032 111.905 39.7868 112.773C39.0785 112.649 38.3392 112.624 37.6258 112.629C32.0269 112.67 26.2626 114.154 21.9769 117.757C21.5375 118.129 21.0774 118.734 21.3927 119.215C21.6047 119.536 22.0441 119.587 22.4318 119.598C29.2456 119.799 36.1111 117.695 41.6427 113.714C43.1109 114.485 44.5533 115.301 45.9698 116.165C46.4041 116.429 46.8332 116.697 47.2623 116.971V118.6C44.4861 117.928 41.5859 117.638 39.2646 117.938C35.2942 118.455 31.5048 120.223 28.5477 122.917C28.191 123.242 28.3616 123.847 28.8424 123.93C32.9627 124.648 37.1502 125.098 41.3222 124.798C43.4625 124.643 45.4115 124.4 47.2674 123.92V125.698C46.9779 125.781 46.6936 125.863 46.4144 125.951C43.2143 126.965 40.0815 128.515 37.8585 131.028C37.4656 131.467 37.0985 131.964 36.9951 132.543C36.8245 133.504 37.4656 134.466 38.3134 134.952C39.1612 135.438 40.1693 135.536 41.1464 135.557C41.4204 135.562 41.6893 135.552 41.9633 135.546C38.9803 135.857 36.0077 136.301 33.0557 136.906C25.725 138.405 18.3839 140.866 12.5162 145.477C11.7511 146.077 10.9446 146.873 11.048 147.804C11.1255 148.497 11.6994 149.008 12.237 149.463C19.3093 155.403 26.4229 161.375 34.4671 166.053C46.7039 173.172 60.9725 177.132 75.4737 177.427C79.196 177.504 83.0837 177.246 87.0282 176.713C86.4595 177.106 86.0821 177.763 86.0821 178.507V178.771C86.0821 179.975 87.0592 180.952 88.2638 180.952H169.114C170.318 180.952 171.296 179.975 171.296 178.771V178.507C171.296 178.419 171.28 178.337 171.27 178.254C171.745 178.745 172.242 179.226 172.769 179.67C172.976 179.846 173.265 180.022 173.498 179.882C173.648 179.789 173.699 179.603 173.736 179.433C174.428 176.279 174.299 172.903 173.074 169.915C171.461 165.97 167.744 163.013 164.249 160.439C165.061 160.728 165.872 161.007 166.694 161.276C169.403 162.155 172.154 162.905 174.94 163.51C176.501 169.222 179.397 174.563 183.341 178.983C183.636 179.314 184.06 179.665 184.463 179.489C184.711 179.381 184.84 179.117 184.933 178.864C186.06 175.855 185.063 172.376 183.139 169.806C181.216 167.237 178.482 165.407 175.757 163.701L175.7 163.665C177.086 163.949 178.476 164.208 179.872 164.414C181.656 164.683 183.45 164.885 185.244 165.03C188.351 170.142 191.887 174.997 195.805 179.52C196.343 180.141 197.15 180.813 197.879 180.436C198.163 180.291 198.349 180.006 198.499 179.727C199.486 177.871 199.285 175.545 198.38 173.648C197.47 171.75 195.935 170.225 194.286 168.917C191.907 167.035 189.379 166.079 186.572 165.128C188.661 165.252 190.76 165.293 192.853 165.231C193.489 165.211 194.13 165.18 194.766 165.143C198.752 167.837 204.165 167.537 208.797 166.095C212.002 165.097 215.14 163.556 217.374 161.054C217.767 160.615 218.139 160.123 218.247 159.544C218.423 158.583 217.787 157.616 216.939 157.13C216.097 156.644 215.084 156.541 214.112 156.515C206.884 156.313 200.587 160.697 194.554 164.699C193.417 164.761 192.28 164.797 191.142 164.802C189.157 164.812 187.177 164.73 185.197 164.569C185.9 164.425 186.598 164.182 187.265 163.918C192.461 161.829 197.279 158.345 199.957 153.423C200.231 152.917 200.438 152.183 199.967 151.852C199.652 151.63 199.223 151.748 198.861 151.878C192.44 154.183 186.826 158.65 183.129 164.383C181.48 164.202 179.836 163.97 178.202 163.685C175.84 163.272 173.498 162.75 171.177 162.129C175.323 162.341 180.518 161.385 183.796 159.581C186.826 157.916 189.385 155.419 191.163 152.457C194.642 151.397 198.08 150.115 201.446 148.636H219.969V137.868C227.398 132.377 234.124 125.801 239.78 118.315C244.396 112.205 248.398 105.36 249.897 97.8794C250.093 96.9023 250.191 95.7494 249.514 95.1187L249.473 95.1032ZM151.769 154.509C151.692 154.468 151.614 154.426 151.531 154.385V154.307C152.467 154.488 153.465 154.607 154.473 154.654C154.442 154.737 154.406 154.814 154.37 154.897C156.272 155.445 159.312 155.796 162.3 155.988C161.7 156.841 161.111 157.694 160.522 158.542C157.544 157.332 154.623 155.988 151.764 154.514L151.769 154.509ZM151.531 148.621H157.187C157.089 148.817 156.996 149.019 156.898 149.215C154.706 149.996 152.922 150.875 151.531 152.379V148.621ZM110.029 155.791C109.946 155.724 109.863 155.646 109.786 155.584C106.746 153.036 103.509 150.714 100.123 148.621H110.029V155.791ZM44.6722 114.857C43.1109 113.952 41.5187 113.11 39.8953 112.319C39.1716 108.157 38.1997 104.037 36.9899 99.9835C37.4139 100.226 37.874 100.423 38.3341 100.599C40.1435 101.291 41.9943 101.643 43.8761 101.762C43.0024 103.881 42.9869 106.394 43.6072 108.638C44.3103 111.192 45.7113 113.477 47.2519 115.648V116.408C46.3989 115.87 45.5407 115.348 44.6722 114.841V114.857ZM47.2519 134.642V135.148C46.2749 135.195 45.3029 135.252 44.3258 135.329C45.3184 135.174 46.2904 134.941 47.2519 134.642ZM110.029 170.763V176.32H89.5821C96.4941 175.183 103.504 173.234 110.029 170.763ZM169.631 176.398C169.455 176.351 169.274 176.32 169.083 176.32H151.531V154.886C151.805 155.026 152.079 155.171 152.353 155.305C153.904 161.064 156.815 166.451 160.785 170.902C161.08 171.233 161.504 171.585 161.907 171.409C162.155 171.301 162.285 171.037 162.378 170.784C163.505 167.775 162.507 164.295 160.584 161.726C158.852 159.41 156.458 157.699 154.013 156.132C157.079 157.616 160.212 158.96 163.406 160.134C164.249 165.939 166.095 171.828 169.631 176.393V176.398ZM169.522 161.664C168.013 161.225 166.508 160.749 165.025 160.232C164.12 159.917 163.22 159.586 162.326 159.239C165.878 159.493 169.465 158.04 172.516 155.951C173.725 155.864 174.935 155.75 176.14 155.605C173.529 157.141 171.358 158.945 169.522 161.659V161.664Z" fill="#E1ECF2"/>
<path d="M147.473 154.917C153.144 141.057 163.076 125.894 174.32 116.289C185.564 106.683 198.995 100.02 212.928 97.1297C222.083 95.2324 231.368 94.9481 240.596 94.6689C241.299 94.6482 242.065 94.6482 242.571 95.1238C243.248 95.7546 243.15 96.9126 242.954 97.8845C241.46 105.365 237.453 112.215 232.836 118.321C215.745 140.944 188.919 155.326 162.259 156.163C158.521 156.282 151.014 155.931 147.473 154.912" fill="#F9959D"/>
<path d="M221.675 116.92C216.262 117.018 210.798 117.519 205.406 118.527C208.952 116.087 212.498 113.642 216.045 111.202C216.443 110.928 216.071 110.313 215.678 110.587C208.921 115.234 202.174 119.908 195.397 124.514C199.61 118.471 203.756 112.36 208.239 106.528C208.533 106.141 208.021 105.655 207.722 106.042C202.846 112.381 198.38 119.05 193.784 125.6C192.466 126.494 191.152 127.388 189.829 128.272C186.774 130.32 183.703 132.341 180.622 134.347C180.508 134.368 180.425 134.43 180.373 134.507C176.47 137.046 172.546 139.537 168.592 141.962C173.007 134.724 178.011 127.786 183.713 121.578C184.044 121.216 183.527 120.735 183.196 121.092C177.163 127.668 171.9 135.05 167.289 142.748C165.815 143.647 164.342 144.547 162.858 145.426C157.864 148.378 152.808 151.206 147.669 153.847C147.251 154.064 147.447 154.768 147.871 154.55C151.557 152.658 155.186 150.647 158.8 148.59C166.058 147.54 173.327 146.584 180.606 146.418C182.741 146.372 184.871 146.387 187.001 146.455C187.456 146.47 187.43 145.72 186.98 145.71C179.717 145.467 172.443 146.015 165.164 146.956C163.629 147.158 162.088 147.38 160.553 147.597C165.371 144.805 170.137 141.905 174.852 138.917C176.863 137.645 178.859 136.353 180.854 135.06C190.056 133.566 199.336 133.122 208.497 133.758C208.947 133.789 209.117 133.049 208.657 133.018C201.435 132.517 194.13 132.662 186.851 133.478C185.352 133.649 183.853 133.856 182.354 134.078C186.288 131.504 190.201 128.893 194.094 126.251C194.135 126.236 194.177 126.21 194.218 126.168C196.689 124.493 199.16 122.813 201.621 121.123C202.392 120.595 203.157 120.063 203.927 119.536C209.8 118.326 215.781 117.767 221.696 117.659C222.156 117.649 222.13 116.904 221.675 116.914V116.92Z" fill="#FD5058"/>
<path d="M132.408 147.184C136.43 149.851 140.582 152.327 144.873 154.535C149.158 156.737 153.579 158.676 158.133 160.263C162.414 161.752 166.808 162.92 171.27 163.701C175.54 164.445 179.872 164.838 184.21 164.818C188.531 164.797 192.859 164.373 197.087 163.479C197.604 163.37 198.121 163.251 198.638 163.132C198.923 163.065 199.073 163.504 198.783 163.572C194.57 164.575 190.253 165.123 185.926 165.252C181.588 165.376 177.241 165.092 172.95 164.44C168.478 163.763 164.073 162.693 159.772 161.297C155.186 159.808 150.73 157.957 146.408 155.822C142.029 153.661 137.795 151.216 133.696 148.569C133.199 148.248 132.703 147.923 132.212 147.597C131.969 147.437 132.171 147.018 132.414 147.184H132.408Z" fill="#FAC620"/>
<path d="M156.453 159.824C157.482 167.247 160.118 174.852 165.836 179.696C166.043 179.872 166.333 180.048 166.565 179.908C166.715 179.815 166.767 179.629 166.803 179.458C167.496 176.305 167.367 172.929 166.141 169.941C164.394 165.671 160.175 162.553 156.453 159.829" fill="#FAC620"/>
<path d="M162.191 161.928C166.519 162.662 173.012 161.711 176.858 159.591C180.363 157.663 183.248 154.623 185.011 151.035C185.228 150.601 184.845 150.099 184.37 150.197C180.27 151.035 176.207 152.146 172.438 153.956C168.323 155.931 165.138 157.947 162.595 161.736" fill="#FAC620"/>
<path d="M143.224 153.992C146.615 154.99 151.485 154.964 154.209 153.796C156.691 152.731 158.583 150.787 159.56 148.316C159.679 148.016 159.333 147.607 158.981 147.628C155.931 147.819 152.938 148.217 150.239 149.164C147.297 150.192 145.069 151.356 143.518 153.894" fill="#FAC620"/>
<path d="M167.894 163.112C169.424 168.979 172.371 174.48 176.408 179.003C176.703 179.334 177.127 179.686 177.53 179.51C177.778 179.402 177.908 179.138 178.001 178.885C179.128 175.876 178.13 172.396 176.207 169.827C174.284 167.258 171.549 165.428 168.824 163.722" fill="#FAC620"/>
<path d="M145.369 155.036C146.899 160.909 149.846 166.405 153.884 170.928C154.178 171.259 154.602 171.611 155.006 171.435C155.254 171.326 155.383 171.063 155.476 170.809C156.603 167.801 155.605 164.321 153.682 161.752C151.759 159.183 149.024 157.352 146.3 155.646" fill="#FAC620"/>
<path d="M175.85 164.554C177.323 164.988 178.9 164.507 180.322 163.934C185.518 161.845 190.336 158.361 193.014 153.439C193.288 152.932 193.495 152.198 193.024 151.867C192.709 151.645 192.28 151.764 191.918 151.893C185.445 154.214 179.779 158.743 176.088 164.544" fill="#FAC620"/>
<path d="M178.306 165.04C181.418 170.158 184.954 175.012 188.873 179.541C189.41 180.162 190.217 180.834 190.946 180.456C191.23 180.311 191.416 180.027 191.566 179.748C192.554 177.892 192.352 175.566 191.447 173.668C190.537 171.771 189.002 170.246 187.353 168.938C184.711 166.849 181.888 165.898 178.693 164.828" fill="#FAC620"/>
<path d="M187.389 164.864C191.411 167.888 197.056 167.614 201.859 166.115C205.064 165.117 208.202 163.577 210.436 161.075C210.829 160.635 211.201 160.144 211.309 159.565C211.485 158.604 210.849 157.637 210.002 157.151C209.159 156.665 208.146 156.561 207.174 156.536C199.858 156.334 193.494 160.827 187.394 164.869" fill="#FAC620"/>
<path d="M153.372 158.929C158.226 160.253 163.37 157.911 167.279 154.747C169.889 152.632 172.231 150.048 173.384 146.894C173.586 146.341 173.751 145.746 173.637 145.167C173.446 144.211 172.495 143.549 171.528 143.404C170.561 143.265 169.589 143.544 168.669 143.875C161.799 146.393 157.544 152.917 153.367 158.924" fill="#FAC620"/>
<path d="M113.135 166.4C100.097 173.001 83.0422 177.742 68.5409 177.447C54.0449 177.153 39.7763 173.193 27.5343 166.074C19.4901 161.395 12.3765 155.424 5.30424 149.484C4.76659 149.034 4.19274 148.517 4.1152 147.825C4.0118 146.899 4.81829 146.103 5.58341 145.498C11.4563 140.892 18.7974 138.431 26.1229 136.927C53.2643 131.364 82.4373 138.467 102.879 155.605C105.743 158.009 111.13 163.272 113.13 166.394" fill="#F9959D"/>
<path d="M33.5777 145.426C37.6825 148.957 42.082 152.224 46.7503 155.062C42.5473 154.53 38.3494 153.997 34.1464 153.46C33.676 153.398 33.5622 154.106 34.0327 154.168C42.0303 155.191 50.0383 156.184 58.0308 157.249C51.0412 158.971 44.0672 160.785 37.0105 162.166C36.5452 162.259 36.6176 162.962 37.088 162.874C44.76 161.375 52.3285 159.358 59.9281 157.508C61.479 157.714 63.0299 157.921 64.5809 158.138C68.1635 158.64 71.741 159.172 75.3133 159.72C75.4116 159.777 75.5098 159.787 75.6028 159.767C80.1264 160.465 84.6448 161.214 89.1425 162.031C81.2431 164.513 73.1007 166.374 64.8962 167.227C64.4206 167.278 64.4982 167.982 64.9738 167.935C73.659 167.03 82.2822 165.004 90.6159 162.31C92.2857 162.62 93.9607 162.925 95.6306 163.256C101.235 164.373 106.813 165.624 112.324 167.066C112.774 167.185 113.073 166.524 112.618 166.405C108.664 165.366 104.672 164.451 100.671 163.592C94.5863 159.544 88.548 155.419 83.006 150.694C81.3826 149.308 79.8007 147.876 78.2549 146.408C77.9241 146.093 77.4691 146.667 77.7948 146.982C83.0628 152.002 88.8426 156.443 94.8809 160.584C96.1579 161.457 97.4451 162.315 98.7324 163.174C93.361 162.052 87.9586 161.054 82.5355 160.149C80.2246 159.762 77.9137 159.4 75.5977 159.038C67.7758 154.028 60.564 148.176 54.1276 141.595C53.8122 141.269 53.2125 141.714 53.5382 142.04C58.615 147.23 64.157 151.986 70.1177 156.225C71.3481 157.099 72.5992 157.942 73.8555 158.769C69.2802 158.076 64.6998 157.425 60.1142 156.804C60.0728 156.789 60.0263 156.779 59.9694 156.784C57.0589 156.391 54.1483 156.008 51.2325 155.631C50.3226 155.512 49.4128 155.398 48.5029 155.285C43.3486 152.276 38.5304 148.709 34.043 144.852C33.6966 144.552 33.2365 145.126 33.5829 145.426H33.5777Z" fill="#FD5058"/>
<path d="M60.9622 121.95C59.6801 117.297 58.1757 112.706 56.3869 108.224C54.6033 103.747 52.5406 99.3837 50.147 95.2014C47.8981 91.2672 45.3495 87.5036 42.4906 83.983C39.7609 80.6175 36.7469 77.4794 33.4641 74.6464C30.1917 71.8237 26.6504 69.306 22.8713 67.2019C22.4112 66.9434 21.9407 66.6953 21.4754 66.4471C21.2118 66.3127 21.3927 65.8836 21.6564 66.0232C25.4923 68.0342 29.106 70.4485 32.456 73.1988C35.8112 75.9492 38.9027 79.0252 41.7099 82.3287C44.6412 85.7717 47.2623 89.4733 49.5887 93.3506C52.0702 97.4813 54.2156 101.808 56.0767 106.254C57.9637 110.757 59.5508 115.384 60.9053 120.073C61.0707 120.642 61.231 121.211 61.3861 121.779C61.4636 122.064 61.0397 122.245 60.9622 121.96V121.95Z" fill="#FD5058"/>
<path d="M51.1189 96.6283C55.2134 90.3522 58.217 82.887 57.0848 75.4787C57.0435 75.2099 56.9452 74.8842 56.6764 74.8428C56.5058 74.8118 56.3404 74.9204 56.2008 75.0238C53.6056 76.9469 51.4911 79.5784 50.452 82.6389C48.9683 87.0073 50.1004 92.1254 51.1241 96.6283" fill="#FD5058"/>
<path d="M48.1721 91.2775C45.3908 87.881 39.8643 84.3397 35.5734 83.4091C31.6598 82.5665 27.493 82.9594 23.807 84.5103C23.3572 84.6964 23.321 85.3271 23.7449 85.5649C27.3896 87.6225 31.1791 89.4526 35.2115 90.5641C39.611 91.779 43.3384 92.3425 47.743 91.1586" fill="#FD5058"/>
<path d="M57.271 109.718C55.3686 106.74 51.6774 103.561 48.8547 102.656C46.2853 101.829 43.5815 102.057 41.2241 103.282C40.9397 103.432 40.9294 103.964 41.2086 104.181C43.6383 106.037 46.156 107.702 48.8081 108.762C51.7032 109.915 54.1485 110.504 56.9815 109.604" fill="#FD5058"/>
<path d="M44.6464 86.6402C47.3451 81.2068 48.7306 75.1272 48.6582 69.0578C48.653 68.6184 48.5651 68.0704 48.1464 67.936C47.8931 67.8533 47.6191 67.9722 47.3813 68.1014C44.5534 69.6265 43.0231 72.9093 42.7905 76.1146C42.5579 79.3198 43.416 82.4941 44.3518 85.5649" fill="#FD5058"/>
<path d="M56.3403 107.516C59.0389 102.082 60.4244 96.0027 60.352 89.9334C60.3469 89.494 60.259 88.946 59.8402 88.8116C59.5869 88.7288 59.3129 88.8477 59.0751 88.977C56.2472 90.5021 54.717 93.7849 54.4843 96.9901C54.2517 100.195 55.1099 103.37 56.0456 106.44" fill="#FD5058"/>
<path d="M39.5903 80.328C38.7631 79.0355 37.2587 78.3635 35.806 77.862C30.5173 76.0215 24.5927 75.4891 19.3454 77.4484C18.8078 77.65 18.1719 78.0688 18.3063 78.6271C18.3994 78.9993 18.7974 79.1958 19.1541 79.3354C25.5647 81.8324 32.8075 82.1374 39.399 80.1832" fill="#FD5058"/>
<path d="M38.06 78.3479C39.0733 72.4441 39.5903 66.4626 39.611 60.4709C39.611 59.654 39.4404 58.6149 38.6494 58.4185C38.3392 58.3409 38.0135 58.434 37.7137 58.5477C35.7491 59.3025 34.374 61.1895 33.8105 63.216C33.2521 65.2426 33.4072 67.4035 33.795 69.4714C34.4153 72.7801 35.9249 75.3495 37.6258 78.2549" fill="#FD5058"/>
<path d="M31.0912 72.5216C30.0417 67.6 25.6061 64.1 20.9998 62.0787C17.9238 60.7293 14.5531 59.8298 11.2186 60.2486C10.6344 60.3209 10.0295 60.4502 9.56943 60.8172C8.80947 61.4273 8.65438 62.5749 8.96973 63.4952C9.28509 64.4154 9.98301 65.1598 10.7016 65.8164C16.0885 70.769 23.838 71.56 31.0912 72.5164" fill="#FD5058"/>
<path d="M52.8611 99.3269C50.0694 95.1445 44.6515 93.5316 39.6213 93.3506C36.2661 93.2317 32.7972 93.6453 29.8556 95.2635C29.3386 95.5478 28.8268 95.889 28.5321 96.4008C28.0514 97.2486 28.3305 98.3705 28.9664 99.1149C29.6023 99.8542 30.5225 100.288 31.4324 100.635C38.2668 103.246 45.763 101.116 52.8559 99.3269" fill="#FD5058"/>
<path d="M69.1873 145.772C66.4214 141.817 63.4643 137.997 60.2746 134.373C57.0952 130.754 53.6831 127.332 50.0281 124.194C46.5902 121.242 42.93 118.548 39.0578 116.191C35.3563 113.937 31.4686 111.988 27.4258 110.416C23.3986 108.855 19.2162 107.666 14.9512 106.952C14.429 106.864 13.9069 106.787 13.3847 106.709C13.0952 106.668 13.1159 106.208 13.4106 106.249C17.7015 106.854 21.9148 107.924 25.9886 109.387C30.0728 110.855 34.0121 112.717 37.7654 114.888C41.6789 117.152 45.3908 119.758 48.8804 122.632C52.6026 125.693 56.0767 129.048 59.3182 132.615C62.601 136.229 65.6511 140.049 68.4945 144.014C68.8409 144.495 69.1821 144.976 69.5181 145.462C69.6887 145.7 69.3475 146.015 69.1769 145.772H69.1873Z" fill="#FAC620"/>
<path d="M51.429 125.212C53.1816 117.928 53.5124 109.884 49.9608 103.287C49.8316 103.049 49.6299 102.775 49.3611 102.822C49.1905 102.853 49.0716 103.008 48.9734 103.153C47.1743 105.836 46.0628 109.025 46.1041 112.256C46.1662 116.873 48.9527 121.314 51.4238 125.212" fill="#FAC620"/>
<path d="M46.8588 121.159C43.1004 118.894 36.7054 117.406 32.3524 117.969C28.382 118.486 24.5926 120.254 21.6355 122.948C21.2788 123.273 21.4494 123.878 21.9302 123.961C26.0505 124.679 30.238 125.129 34.41 124.829C38.9594 124.499 42.661 123.785 46.4142 121.19" fill="#FAC620"/>
<path d="M61.6136 135.484C58.8219 133.318 54.2776 131.56 51.3205 131.648C48.6219 131.731 46.1508 132.848 44.3362 134.797C44.1139 135.035 44.2845 135.541 44.6257 135.65C47.5363 136.585 50.4675 137.309 53.3212 137.418C56.4386 137.537 58.9356 137.268 61.3085 135.474" fill="#FAC620"/>
<path d="M41.9839 117.974C42.7025 111.951 41.9735 105.758 39.8694 100.066C39.7143 99.6526 39.4507 99.1666 39.0112 99.1821C38.7424 99.1925 38.5253 99.3941 38.3443 99.5905C36.1937 101.979 35.8525 105.582 36.7003 108.679C37.5534 111.776 39.43 114.479 41.3376 117.059" fill="#FAC620"/>
<path d="M59.9953 133.721C60.7139 127.699 59.985 121.505 57.8809 115.813C57.7258 115.4 57.4621 114.914 57.0227 114.929C56.7539 114.94 56.5368 115.141 56.3558 115.338C54.2052 117.721 53.864 121.329 54.7118 124.426C55.5648 127.523 57.4415 130.227 59.3491 132.806" fill="#FAC620"/>
<path d="M35.1029 113.72C33.8932 112.779 32.2492 112.649 30.7138 112.66C25.1149 112.701 19.3506 114.185 15.0649 117.788C14.6254 118.16 14.1653 118.765 14.4807 119.246C14.6926 119.567 15.1321 119.618 15.5198 119.629C22.3956 119.835 29.3179 117.69 34.8806 113.642" fill="#FAC620"/>
<path d="M32.9989 112.365C31.9753 106.466 30.4553 100.65 28.465 95.005C28.191 94.2347 27.6843 93.3093 26.8727 93.3972C26.5573 93.4282 26.2782 93.6246 26.0352 93.8314C24.4377 95.2014 23.7708 97.4399 23.9259 99.5337C24.0758 101.633 24.9495 103.613 26.0093 105.432C27.705 108.343 29.9849 110.261 32.5646 112.427" fill="#FAC620"/>
<path d="M24.479 109.211C21.8424 104.926 16.4865 103.116 11.4718 102.754C8.12179 102.511 4.64253 102.796 1.64406 104.311C1.11674 104.574 0.589426 104.895 0.279239 105.396C-0.232569 106.223 0.00524101 107.361 0.610105 108.121C1.21497 108.881 2.11968 109.346 3.01922 109.728C9.75544 112.593 17.3188 110.737 24.479 109.206" fill="#FAC620"/>
<path d="M53.9726 127.171C49.9402 124.168 44.2948 124.462 39.4973 125.977C36.2972 126.99 33.1643 128.541 30.9413 131.054C30.5484 131.493 30.1813 131.99 30.0779 132.569C29.9073 133.53 30.5484 134.492 31.3962 134.978C32.2441 135.464 33.2522 135.562 34.2293 135.583C41.5445 135.753 47.893 131.235 53.9778 127.171" fill="#FAC620"/>
<path opacity="0.28" d="M191.383 34.4301C194.577 31.2361 194.577 26.0578 191.383 22.8638C188.189 19.6699 183.011 19.6699 179.817 22.8638C176.623 26.0577 176.623 31.2361 179.817 34.4301C183.011 37.624 188.189 37.624 191.383 34.4301Z" fill="#FAC620"/>
<path d="M192.858 27.1827C192.579 27.467 192.238 27.6997 191.892 27.9064C190.93 26.5209 189.969 25.1406 189.002 23.7551C188.873 23.5638 188.738 23.3777 188.609 23.1864C188.94 22.9228 189.297 22.685 189.674 22.5195C189.845 22.4472 189.7 22.1938 189.529 22.2662C189.095 22.4523 188.692 22.747 188.325 23.0417C187.921 23.3674 187.554 23.7344 187.218 24.1325C187.146 24.1429 187.089 24.2049 187.089 24.2721C186.722 24.727 186.407 25.2182 186.143 25.73C185.776 26.4382 185.507 27.1982 185.326 27.9737C185.264 28.2373 185.218 28.5061 185.171 28.775C184.949 28.7284 184.726 28.6871 184.499 28.6561C184.091 28.5992 183.677 28.5578 183.258 28.5475C183.108 28.5475 182.964 28.5475 182.814 28.5527C182.793 28.5527 182.772 28.5527 182.752 28.5527C182.033 28.5682 181.32 28.6561 180.627 28.837C180.627 28.837 180.616 28.837 180.611 28.837C180.26 28.9301 179.908 29.0438 179.572 29.1886C179.066 29.4057 178.528 29.6849 178.13 30.0778C177.995 30.207 178.202 30.419 178.337 30.2845C178.533 30.0881 178.781 29.9278 179.04 29.7831C180.012 31.1582 180.978 32.5334 181.945 33.9034C182.064 34.074 182.188 34.2446 182.307 34.4152C182.064 34.622 181.8 34.8081 181.516 34.9425C181.345 35.0201 181.49 35.2734 181.661 35.1958C182.064 35.0097 182.436 34.7047 182.757 34.4049C183.093 34.0947 183.387 33.7431 183.661 33.3761C183.692 33.3554 183.718 33.3244 183.724 33.2934C184.116 32.7505 184.447 32.1612 184.706 31.5408C184.721 31.5046 184.732 31.4736 184.747 31.4374C184.768 31.4167 184.778 31.3909 184.778 31.3599C185.062 30.6361 185.269 29.8813 185.404 29.111C185.471 29.1265 185.543 29.1369 185.61 29.1472C186.427 29.3075 187.26 29.3798 188.092 29.3333C188.821 29.292 189.54 29.1524 190.237 28.9352C190.263 28.9352 190.294 28.9249 190.315 28.9094C190.76 28.7646 191.194 28.594 191.607 28.3769C192.119 28.1081 192.647 27.7824 193.055 27.3636C193.184 27.2292 192.983 27.0224 192.848 27.1568L192.858 27.1827ZM188.232 23.507C188.283 23.4656 188.335 23.4191 188.387 23.3777C189.353 24.7684 190.325 26.1591 191.292 27.5549C191.406 27.7203 191.525 27.8858 191.638 28.0564C191.209 28.2942 190.76 28.4906 190.294 28.6457C189.441 27.3533 188.588 26.0557 187.735 24.7632C187.637 24.6185 187.544 24.4737 187.446 24.3238C187.689 24.0343 187.947 23.7603 188.232 23.507ZM188.381 29.0438C188.381 29.0438 188.371 29.0438 188.366 29.0438C187.766 28.1856 187.167 27.3326 186.567 26.4744C186.479 26.3503 186.391 26.2263 186.308 26.1022C186.308 26.1022 186.308 26.1022 186.303 26.1022C186.567 25.5542 186.887 25.0424 187.26 24.5668C188.087 25.823 188.919 27.0845 189.746 28.3407L190.01 28.7388C189.477 28.8939 188.935 29.0024 188.387 29.049L188.381 29.0438ZM182.721 28.8525C183.238 29.6021 183.76 30.3569 184.277 31.1065C184.339 31.1996 184.401 31.2875 184.463 31.3805C184.225 31.9544 183.93 32.5075 183.579 33.0142C182.767 31.8251 181.955 30.6309 181.139 29.4419C181.056 29.323 180.973 29.2041 180.896 29.0852C181.49 28.9404 182.105 28.868 182.715 28.8525H182.721ZM182.834 33.9499C182.741 34.0481 182.643 34.1464 182.54 34.2394C181.578 32.8746 180.611 31.5046 179.65 30.1398C179.536 29.9795 179.422 29.8193 179.309 29.659C179.36 29.6332 179.417 29.6021 179.469 29.5763C179.831 29.4005 180.213 29.2713 180.601 29.1627C181.433 30.3828 182.266 31.6028 183.098 32.8229C183.201 32.9728 183.305 33.1228 183.403 33.2727C183.227 33.5105 183.036 33.738 182.829 33.9499H182.834ZM185.073 29.3488C184.985 29.7882 184.876 30.2225 184.737 30.6464C184.695 30.7808 184.633 30.9153 184.587 31.0497C184.106 30.3518 183.625 29.6538 183.145 28.9611C183.119 28.9249 183.093 28.8887 183.067 28.8473C183.765 28.8577 184.442 28.9507 185.119 29.0748C185.104 29.1679 185.088 29.2609 185.073 29.3488ZM185.461 28.837C185.6 28.0615 185.776 27.3016 186.076 26.5675C186.102 26.5106 186.133 26.4537 186.153 26.3969C186.737 27.2292 187.322 28.0615 187.901 28.8939C187.937 28.9507 187.978 29.0024 188.014 29.0593C187.311 29.0903 186.608 29.049 185.915 28.9249C185.76 28.899 185.61 28.868 185.455 28.837H185.461Z" fill="#FAC620"/>
<path opacity="0.28" d="M131.871 22.261C134.73 25.7558 134.218 30.9049 130.723 33.769C127.228 36.6278 122.079 36.116 119.215 32.6213C116.356 29.1265 116.868 23.9774 120.363 21.1133C123.857 18.2545 129.007 18.7663 131.871 22.261Z" fill="#FAC620"/>
<path d="M119.753 28.2476C120.192 28.3459 120.637 28.4079 121.086 28.4182C121.293 28.4182 121.516 28.4286 121.722 28.3976C121.914 28.3665 121.955 28.2838 122.048 28.1184C122.482 27.3377 122.958 26.5881 123.47 25.854C123.309 25.823 123.149 25.792 122.994 25.7661C123.635 28.0563 124.054 30.4086 124.235 32.7815C124.261 33.1124 124.716 33.1589 124.762 32.8125C125.243 29.0541 126.086 25.3474 127.264 21.7441C127.094 21.713 126.923 21.6768 126.752 21.6458L126.856 26.9242C126.866 27.3481 126.856 27.7772 126.882 28.2011C126.897 28.4699 126.98 28.6922 127.249 28.7956C127.58 28.9197 128.035 28.8473 128.386 28.8525C128.836 28.8577 129.286 28.8628 129.73 28.868C130.066 28.868 130.103 28.3459 129.761 28.3407L128.67 28.3252C128.479 28.3252 128.288 28.3252 128.091 28.32C127.921 28.32 127.693 28.3562 127.533 28.3097C127.45 28.289 127.445 28.3045 127.409 28.2321C127.378 28.1753 127.399 27.984 127.399 27.9271C127.399 27.7513 127.394 27.5807 127.388 27.405C127.383 27.0121 127.373 26.6243 127.368 26.2314C127.337 24.7115 127.306 23.1916 127.28 21.6717C127.275 21.3873 126.866 21.2736 126.768 21.5734C125.574 25.2233 124.731 28.9766 124.24 32.7815C124.416 32.7919 124.592 32.8022 124.767 32.8125C124.581 30.3931 124.168 27.9995 123.516 25.6576C123.454 25.4404 123.175 25.3732 123.041 25.5697C122.493 26.3503 121.986 27.162 121.526 27.9943C121.603 27.953 121.681 27.9168 121.758 27.8754C121.143 27.9219 120.533 27.8857 119.928 27.7513C119.598 27.679 119.427 28.1804 119.758 28.2528L119.753 28.2476Z" fill="#FAC620"/>
<path opacity="0.28" d="M161.284 34.3086C164.478 31.1147 164.478 25.9363 161.284 22.7424C158.09 19.5485 152.912 19.5484 149.718 22.7424C146.524 25.9363 146.524 31.1147 149.718 34.3086C152.912 37.5026 158.09 37.5026 161.284 34.3086Z" fill="#FAC620"/>
<path d="M152.519 22.2766L154.106 25.58L153.997 25.6317L154.52 27.1827L154.613 27.1362L154.695 27.3068L154.251 27.5187C154.209 27.5394 154.173 27.5756 154.158 27.6273C154.142 27.679 154.142 27.7307 154.168 27.772L156.272 32.1405L155.817 32.43L155.9 32.5954L156.381 32.3628L156.789 32.1663L157.596 33.8465L157.244 34.167L157.373 34.4359L158.278 33.9964L159.183 33.5622L159.053 33.2934L158.583 33.3709L157.776 31.6907L158.185 31.4943L158.666 31.2616L158.583 31.0962L158.076 31.272L155.972 26.9035C155.952 26.8622 155.915 26.826 155.864 26.8053C155.812 26.7898 155.76 26.7898 155.719 26.8156L155.274 27.0276L155.192 26.857L155.285 26.8105L154.395 25.4353L154.287 25.487L152.989 22.7935L152.514 22.2714L152.519 22.2766ZM155.765 27.0741L157.823 31.3495L157.647 31.4322L156.655 31.9079L156.479 31.9906L155.962 30.9204L156.138 30.8377L156.887 30.4758L156.799 30.2949L156.05 30.6568L155.874 30.7395L155.667 30.3156L155.843 30.2328L156.593 29.871L156.505 29.69L155.755 30.0519L155.579 30.1346L155.373 29.7107L156.298 29.2661L156.21 29.0852L155.285 29.5298L155.083 29.1058L156.008 28.6612L155.921 28.4803L154.995 28.9249L154.788 28.501L155.714 28.0564L155.626 27.8754L154.7 28.32L154.411 27.7152L154.788 27.5342L155.367 27.2551L155.745 27.0741H155.765Z" fill="#FAC620"/>
<path d="M144.635 141.145H103.132V177.375H144.635V141.145Z" fill="#1187D0"/>
<path d="M144.635 148.553L103.132 147.861V165.898L144.635 157.228V148.553Z" fill="#176EA3"/>
<path d="M209.665 43.9638C207.747 42.1543 205.168 41.0377 202.319 41.0377H50.8447C45.0494 41.0377 40.3552 45.7318 40.3552 51.5271V137.537C155.615 139.212 197.392 71.6944 209.665 43.9689V43.9638Z" fill="#98C4DF"/>
<path d="M209.665 43.9637C197.392 71.6893 155.615 139.207 40.3552 137.532V148.647H213.031V51.7494C213.031 48.6786 211.733 45.9179 209.665 43.9689V43.9637Z" fill="#76B6D6"/>
<path d="M52.9356 45H199.09C203.753 45 207.543 48.7894 207.543 53.4526V139.328H45V52.9356C45 48.5568 48.5568 45 52.9356 45Z" fill="#0F81C7"/>
<path d="M127.973 143.994C127.973 145.984 126.36 147.602 124.364 147.602C122.369 147.602 120.756 145.989 120.756 143.994C120.756 141.998 122.369 140.385 124.364 140.385C126.36 140.385 127.973 141.998 127.973 143.994Z" fill="#1E85A5"/>
<path d="M162.186 176.351H81.3359C80.1311 176.351 79.1543 177.328 79.1543 178.533V178.797C79.1543 180.002 80.1311 180.978 81.3359 180.978H162.186C163.391 180.978 164.368 180.002 164.368 178.797V178.533C164.368 177.328 163.391 176.351 162.186 176.351Z" fill="#176EA3"/>
<path d="M196.399 131.288C199.593 128.094 199.593 122.916 196.399 119.722C193.205 116.528 188.026 116.528 184.832 119.722C181.639 122.916 181.639 128.094 184.832 131.288C188.026 134.482 193.205 134.482 196.399 131.288Z" fill="#FAC620"/>
<path d="M187.435 118.801C187.776 119.008 188.081 119.287 188.361 119.577C187.234 120.833 186.107 122.084 184.985 123.341C184.83 123.511 184.675 123.682 184.525 123.857C184.194 123.594 183.878 123.304 183.63 122.973C183.517 122.824 183.305 123.025 183.418 123.175C183.703 123.558 184.08 123.878 184.447 124.173C184.855 124.493 185.3 124.762 185.76 125C185.786 125.067 185.858 125.114 185.926 125.093C186.448 125.346 187.001 125.543 187.564 125.682C188.34 125.874 189.141 125.967 189.937 125.962C190.211 125.962 190.48 125.946 190.754 125.925C190.765 126.153 190.77 126.38 190.79 126.608C190.827 127.021 190.883 127.435 190.966 127.838C190.997 127.983 191.039 128.128 191.075 128.267C191.075 128.288 191.08 128.309 191.09 128.324C191.266 129.022 191.519 129.694 191.855 130.33C191.855 130.33 191.855 130.34 191.861 130.34C192.036 130.661 192.222 130.976 192.445 131.271C192.77 131.71 193.168 132.17 193.639 132.47C193.799 132.574 193.954 132.326 193.794 132.222C193.561 132.072 193.344 131.871 193.143 131.654C194.259 130.397 195.376 129.136 196.487 127.88C196.627 127.724 196.767 127.564 196.906 127.409C197.165 127.6 197.408 127.812 197.599 128.061C197.713 128.21 197.925 128.009 197.811 127.859C197.537 127.507 197.154 127.218 196.792 126.97C196.415 126.711 196.007 126.504 195.583 126.329C195.557 126.303 195.521 126.287 195.485 126.287C194.864 126.029 194.213 125.843 193.556 125.734C193.52 125.729 193.484 125.724 193.448 125.719C193.422 125.703 193.396 125.703 193.365 125.708C192.595 125.595 191.814 125.569 191.033 125.615C191.033 125.543 191.028 125.476 191.023 125.403C190.992 124.571 190.868 123.744 190.635 122.948C190.429 122.245 190.129 121.578 189.756 120.952C189.746 120.926 189.736 120.9 189.715 120.88C189.472 120.482 189.208 120.094 188.903 119.742C188.526 119.308 188.087 118.869 187.59 118.569C187.43 118.471 187.275 118.719 187.435 118.817V118.801ZM184.918 124.147C184.866 124.111 184.809 124.069 184.757 124.028C185.889 122.767 187.022 121.505 188.154 120.244C188.288 120.094 188.423 119.944 188.562 119.789C188.893 120.151 189.188 120.544 189.446 120.962C188.381 122.089 187.316 123.216 186.251 124.343C186.132 124.473 186.014 124.597 185.889 124.726C185.553 124.555 185.223 124.369 184.918 124.152V124.147ZM190.273 122.73C190.273 122.73 190.273 122.741 190.273 122.746C189.575 123.527 188.883 124.307 188.185 125.083C188.087 125.196 187.983 125.31 187.885 125.424C187.885 125.424 187.885 125.424 187.885 125.429C187.296 125.3 186.717 125.103 186.169 124.85C187.203 123.754 188.237 122.658 189.27 121.567C189.379 121.454 189.488 121.335 189.596 121.221C189.87 121.702 190.098 122.208 190.268 122.73H190.273ZM191.385 128.283C192 127.606 192.61 126.928 193.225 126.251C193.298 126.168 193.375 126.086 193.448 126.008C194.063 126.106 194.663 126.267 195.242 126.494C194.27 127.559 193.293 128.624 192.321 129.684C192.222 129.792 192.124 129.896 192.026 130.004C191.752 129.456 191.54 128.877 191.385 128.288V128.283ZM196.322 127.006C196.441 127.073 196.555 127.151 196.674 127.228C195.562 128.479 194.456 129.73 193.344 130.981C193.215 131.131 193.081 131.276 192.951 131.426C192.91 131.38 192.874 131.333 192.832 131.286C192.579 130.971 192.367 130.63 192.171 130.278C193.168 129.188 194.166 128.097 195.159 127.011C195.283 126.877 195.402 126.742 195.526 126.608C195.795 126.727 196.064 126.856 196.317 127.011L196.322 127.006ZM191.333 125.879C191.778 125.863 192.228 125.869 192.672 125.905C192.812 125.915 192.957 125.941 193.096 125.962C192.527 126.592 191.959 127.218 191.39 127.849C191.359 127.885 191.328 127.916 191.297 127.952C191.147 127.27 191.085 126.592 191.049 125.9C191.142 125.894 191.235 125.889 191.328 125.884L191.333 125.879ZM190.749 125.615C189.963 125.657 189.183 125.662 188.397 125.538C188.335 125.527 188.273 125.512 188.216 125.496C188.893 124.736 189.57 123.982 190.242 123.222C190.289 123.17 190.33 123.123 190.377 123.072C190.568 123.749 190.687 124.447 190.728 125.145C190.739 125.3 190.744 125.455 190.749 125.61V125.615Z" fill="white"/>
<path d="M157.052 127.444C158.083 123.046 155.353 118.646 150.955 117.615C146.558 116.584 142.157 119.314 141.126 123.712C140.096 128.109 142.825 132.51 147.223 133.541C151.621 134.571 156.021 131.842 157.052 127.444Z" fill="#FAC620"/>
<path d="M143.963 126.949C144.407 127.021 144.852 127.058 145.301 127.042C145.508 127.037 145.731 127.032 145.937 126.985C146.123 126.944 146.165 126.861 146.248 126.685C146.64 125.884 147.07 125.103 147.54 124.343C147.38 124.323 147.219 124.302 147.059 124.281C147.824 126.535 148.378 128.857 148.693 131.214C148.739 131.545 149.194 131.56 149.22 131.214C149.489 127.43 150.12 123.687 151.092 120.022C150.921 119.996 150.745 119.975 150.575 119.949C150.709 121.702 150.843 123.459 150.978 125.212C151.009 125.636 151.03 126.065 151.076 126.484C151.107 126.753 151.205 126.97 151.479 127.052C151.815 127.161 152.265 127.063 152.617 127.047C153.066 127.027 153.511 127.006 153.961 126.99C154.297 126.975 154.302 126.448 153.961 126.463L152.87 126.51C152.679 126.52 152.487 126.525 152.296 126.535C152.126 126.541 151.903 126.592 151.738 126.556C151.655 126.535 151.65 126.556 151.609 126.489C151.572 126.432 151.588 126.241 151.583 126.184C151.567 126.008 151.557 125.838 151.541 125.662C151.51 125.274 151.485 124.881 151.454 124.493C151.34 122.979 151.221 121.464 151.107 119.944C151.086 119.66 150.668 119.572 150.59 119.872C149.603 123.578 148.972 127.378 148.698 131.204H149.225C148.905 128.795 148.352 126.432 147.571 124.131C147.499 123.92 147.214 123.868 147.09 124.069C146.589 124.881 146.129 125.719 145.715 126.577C145.793 126.535 145.865 126.489 145.943 126.448C145.333 126.525 144.717 126.525 144.107 126.427C143.776 126.375 143.632 126.882 143.968 126.934L143.963 126.949Z" fill="white"/>
<path d="M175.544 131.366C178.738 128.172 178.738 122.994 175.544 119.8C172.351 116.606 167.172 116.606 163.978 119.8C160.784 122.994 160.784 128.172 163.978 131.366C167.172 134.56 172.351 134.56 175.544 131.366Z" fill="#FAC620"/>
<path d="M172.624 119.629L170.819 122.818L170.716 122.762L169.739 124.075L169.827 124.126L169.734 124.287L169.305 124.044C169.263 124.023 169.212 124.013 169.16 124.028C169.108 124.044 169.072 124.075 169.046 124.116L166.658 128.335L166.162 128.128L166.074 128.288L166.539 128.552L166.937 128.774L166.017 130.397L165.551 130.289L165.407 130.547L166.286 131.043L167.159 131.54L167.304 131.281L166.973 130.94L167.893 129.317L168.291 129.539L168.757 129.803L168.845 129.642L168.41 129.322L170.799 125.103C170.825 125.062 170.83 125.01 170.814 124.959C170.799 124.907 170.768 124.871 170.726 124.845L170.297 124.602L170.39 124.442L170.478 124.493L171.099 122.979L170.995 122.922L172.469 120.321L172.624 119.634V119.629ZM170.54 125.031L168.204 129.162L168.038 129.069L167.082 128.526L166.916 128.433L167.5 127.399L167.666 127.492L168.39 127.9L168.488 127.724L167.764 127.316L167.599 127.223L167.831 126.815L167.997 126.908L168.721 127.316L168.819 127.14L168.095 126.732L167.93 126.639L168.162 126.23L169.057 126.737L169.155 126.561L168.26 126.055L168.493 125.646L169.387 126.153L169.486 125.977L168.591 125.47L168.824 125.057L169.718 125.564L169.817 125.388L168.922 124.881L169.253 124.297L169.62 124.504L170.184 124.819L170.551 125.026L170.54 125.031Z" fill="white"/>
<path d="M193.867 50.6224H144.578V104.155H193.867V50.6224Z" fill="#E1ECF2"/>
<path d="M189.979 61.1067H148.435C148.078 61.1067 147.783 60.8172 147.783 60.4553C147.783 60.0935 148.073 59.804 148.435 59.804H189.979C190.336 59.804 190.63 60.0935 190.63 60.4553C190.63 60.8172 190.341 61.1067 189.979 61.1067Z" fill="#98C4DF"/>
<path d="M189.979 66.0697H148.435C148.078 66.0697 147.783 65.7802 147.783 65.4183C147.783 65.0616 148.073 64.7669 148.435 64.7669H189.979C190.336 64.7669 190.63 65.0564 190.63 65.4183C190.63 65.7802 190.341 66.0697 189.979 66.0697Z" fill="#98C4DF"/>
<path d="M173.389 71.0379H148.435C148.078 71.0379 147.783 70.7484 147.783 70.3865C147.783 70.0298 148.073 69.7351 148.435 69.7351H173.389C173.746 69.7351 174.04 70.0246 174.04 70.3865C174.04 70.7432 173.751 71.0379 173.389 71.0379Z" fill="#98C4DF"/>
<path d="M173.389 76.0009H148.435C148.078 76.0009 147.783 75.7114 147.783 75.3495C147.783 74.9876 148.073 74.6981 148.435 74.6981H173.389C173.746 74.6981 174.04 74.9876 174.04 75.3495C174.04 75.7062 173.751 76.0009 173.389 76.0009Z" fill="#98C4DF"/>
<path d="M173.389 80.9639H148.435C148.078 80.9639 147.783 80.6744 147.783 80.3125C147.783 79.9558 148.073 79.6611 148.435 79.6611H173.389C173.746 79.6611 174.04 79.9506 174.04 80.3125C174.04 80.6744 173.751 80.9639 173.389 80.9639Z" fill="#98C4DF"/>
<path d="M184.949 85.932H148.435C148.078 85.932 147.783 85.6425 147.783 85.2806C147.783 84.9239 148.073 84.6292 148.435 84.6292H184.949C185.305 84.6292 185.6 84.9187 185.6 85.2806C185.6 85.6373 185.311 85.932 184.949 85.932Z" fill="#98C4DF"/>
<path d="M184.949 90.895H148.435C148.078 90.895 147.783 90.6055 147.783 90.2436C147.783 89.8817 148.073 89.5922 148.435 89.5922H184.949C185.305 89.5922 185.6 89.8817 185.6 90.2436C185.6 90.6003 185.311 90.895 184.949 90.895Z" fill="#98C4DF"/>
<path d="M130.894 50.6224H49.3403V133.923H130.894V50.6224Z" fill="#E1ECF2"/>
<path opacity="0.22" d="M148.383 84.2777C147.029 84.3345 145.808 84.0916 144.407 84.3914C144.681 81.9409 147.478 81.3206 147.587 78.8598C147.597 78.5702 147.463 78.0171 147.153 77.9654C145.922 79.294 145.147 79.842 143.616 80.8708C142.464 81.6463 141.218 82.3494 140.329 83.3781C139.543 84.2932 139.088 85.4099 138.56 86.48C138.457 86.2474 138.354 86.0147 138.25 85.7821C138.178 85.6218 138.105 85.4564 137.961 85.3478C137.795 85.2237 137.573 85.1979 137.361 85.1772C134.171 84.9239 131.054 86.0302 127.869 86.3456C125.719 86.5576 123.553 86.4128 121.397 86.2629C121.066 86.2422 120.72 86.2112 120.44 86.0457C120.187 85.8907 120.027 85.6373 119.877 85.3943C116.077 79.1803 113.895 72.8783 109.248 67.1761C108.979 66.6798 108.509 66.3489 108.048 66.0542C105.169 64.1828 101.715 62.8231 98.2827 62.1614H98.2258C98.1276 62.1355 98.0294 62.1149 97.9312 62.0993C97.1505 61.4583 96.2458 60.9568 95.2326 60.6518C95.0981 60.6104 95.0051 60.6828 94.9689 60.781C94.5295 59.1784 94.2968 57.5293 94.2813 55.8801C96.556 55.7767 97.6003 54.3498 98.7894 52.5404C99.9887 50.7207 100.428 48.5649 100.594 46.4401C100.754 44.398 100.671 42.3353 100.356 40.3087C100.356 40.2984 100.356 40.2932 100.356 40.2829C100.278 39.7969 100.196 39.311 100.092 38.825C99.937 38.0961 99.7406 37.362 99.4924 36.6485C99.5596 36.602 99.632 36.5555 99.6941 36.5038C99.6941 36.5038 99.6941 36.4986 99.7044 36.4934C101.581 35.78 103.065 34.5548 103.618 32.5127C105.531 25.4818 93.6765 23.1658 89.6027 26.1125C89.6027 26.1125 83.7143 23.0572 81.1552 28.7698C81.1552 28.7698 71.0587 33.8517 79.7801 43.8966C79.5319 43.9379 79.2993 44.0155 79.108 44.1447C78.6376 44.4497 78.498 44.9719 78.6014 45.4216C78.7048 45.8766 79.0098 46.2747 79.3148 46.6676C79.594 47.0294 79.868 47.3913 80.1471 47.748C80.5245 48.2392 80.9123 48.7355 81.4706 49.1129C82.0289 49.4851 82.7992 49.7229 83.5437 49.5988C83.7815 49.5575 84.0038 49.4851 84.1434 49.299C84.2519 49.4644 84.3605 49.6247 84.4742 49.7849C85.5444 53.3779 85.746 57.1002 84.9602 60.4502C84.893 60.3881 84.7896 60.3468 84.6759 60.3933C83.9366 60.6932 83.2852 61.1584 82.6803 61.6237C82.5097 61.753 82.3495 61.8977 82.1789 62.0321C82.0445 62.0528 81.9049 62.0787 81.7653 62.1045L81.4292 62.1459C81.4292 62.1459 81.4241 62.1614 81.4189 62.1665C77.9552 62.8386 74.4242 64.2034 71.555 66.0646C71.2138 66.2869 70.8674 66.5247 70.6037 66.8349C70.6037 66.8349 70.6037 66.8349 70.6037 66.84C70.5934 66.8555 70.5831 66.871 70.5727 66.8814C70.0919 67.5379 64.4 75.5149 60.2952 91.6601C56.0095 108.529 57.5449 123.826 57.5449 123.826H67.2537C67.2537 123.826 67.2589 123.78 67.2692 123.697C67.4502 123.749 67.6363 123.79 67.8121 123.816C72.103 124.545 76.4352 125.005 80.7779 125.202C81.4913 125.233 82.334 125.196 82.7424 124.571C82.9233 124.297 82.9802 123.956 83.0319 123.625C83.0422 123.547 83.0577 123.475 83.0681 123.397C87.5709 123.47 92.079 123.537 96.5819 123.609C96.5819 123.615 96.5819 123.62 96.5819 123.625C96.6336 123.956 96.6956 124.297 96.8714 124.571C97.2798 125.191 98.1224 125.233 98.8359 125.202C103.178 125.005 107.511 124.54 111.802 123.816C112.319 123.728 112.903 123.594 113.172 123.113C113.353 122.787 113.342 122.389 113.327 122.012C113.073 116.273 112.82 110.535 112.567 104.797C112.458 102.31 112.345 99.818 112.226 97.3314C112.417 97.6209 112.613 97.9052 112.815 98.1895C113.11 98.6031 113.435 99.0271 113.921 99.2287C114.319 99.3941 114.774 99.3889 115.214 99.3786C117.685 99.3166 120.151 99.1977 122.617 99.0115C124.442 98.872 126.262 98.7014 128.055 98.3808C132.548 97.5692 136.772 95.8218 140.949 94.0899C141.213 93.9814 141.507 93.8366 141.564 93.5781C141.6 93.4127 141.533 93.2472 141.461 93.087C141.156 92.3942 140.851 91.6963 140.546 91.0036C142.955 89.799 145.607 89.008 148.326 88.703C149.432 88.5789 150.57 88.5272 151.624 88.1912C152.814 87.8138 153.837 87.09 154.835 86.3818C155.75 85.7304 157.859 84.3914 158.304 83.4092C157.601 81.8531 152.684 84.1071 148.383 84.288V84.2777ZM95.1033 61.0499C95.8219 61.267 96.4526 61.572 97.0213 61.9442C96.4423 61.8615 95.8684 61.7995 95.2998 61.7581C95.2998 61.7581 95.2998 61.7943 95.2946 61.8615C95.1964 61.5772 95.1085 61.2929 95.0258 61.0085C95.0464 61.024 95.0723 61.0395 95.1033 61.0499ZM84.8568 60.7397C84.7431 61.1791 84.6138 61.6134 84.4691 62.0373C84.4587 61.846 84.4536 61.7426 84.4536 61.7426C83.9676 61.7788 83.4765 61.8305 82.9802 61.8925C83.554 61.4479 84.1641 61.024 84.8568 60.7345V60.7397Z" fill="#1E85A5"/>
<path d="M135.438 91.7532C136.818 90.135 137.196 87.8552 138.519 86.1905C139.408 85.0738 140.654 84.3139 141.807 83.4764C143.337 82.3649 144.108 81.7703 145.343 80.3383C145.653 80.3952 145.793 80.9897 145.778 81.3051C145.669 83.9675 142.872 84.6344 142.598 87.2865C143.999 86.966 145.219 87.2296 146.574 87.1676C150.875 86.9711 155.791 84.531 156.494 86.2163C156.05 87.2813 153.941 88.7289 153.026 89.4319C152.028 90.2022 151.004 90.9829 149.815 91.3913C148.76 91.7532 147.628 91.81 146.517 91.9445C143.327 92.3322 140.23 93.4333 137.511 95.1445" fill="#F1A088"/>
<path d="M92.5235 54.5825C92.2185 58.5735 93.0198 62.6422 94.8137 66.2145C94.9223 66.4316 95.0412 66.6849 94.9533 66.9124C94.8551 67.1761 94.5449 67.2795 94.276 67.3518C90.9467 68.1945 87.483 68.5047 84.0606 68.2617C82.8612 68.179 81.6256 68.0136 80.5813 67.4087C84.5413 61.6806 84.469 53.1453 81.2224 45.8662" fill="#F1A088"/>
<path d="M82.5562 49.5109C82.5562 49.5109 83.6521 52.7472 83.6108 56.7951C83.6108 56.7951 88.0775 58.9923 92.477 57.1105L92.2805 54.4739" fill="#DD8572"/>
<path d="M70.702 103.153C68.6755 110.943 66.6489 118.734 64.6223 126.525C64.4156 127.321 64.276 128.283 65.0618 128.82C65.5891 129.177 66.3542 129.208 67.0573 129.219C80.8658 129.451 94.6691 129.684 108.478 129.911C109.082 129.922 109.853 129.849 110.039 129.399C110.111 129.219 110.065 129.027 110.013 128.841C108.157 121.914 106.296 114.986 104.44 108.053C103.99 106.373 103.21 104.398 101.074 103.912C100.128 103.695 99.1203 103.84 98.1484 103.969C90.9934 104.921 83.6575 105.05 76.4508 104.342" fill="#2E6C9D"/>
<path d="M81.0155 63.1333C84.7378 65.165 90.3108 65.7751 93.7435 63.2832C97.1607 67.5638 97.8173 72.2269 98.2516 77.6914C98.6858 83.1507 98.3033 88.6513 98.7117 94.1106C99.0219 98.2412 99.7818 102.367 99.4871 106.503C99.4561 106.963 99.3734 107.48 98.9908 107.733C98.7789 107.873 98.5152 107.898 98.2619 107.924C91.8049 108.524 85.3168 109.124 78.8442 108.736C78.3945 108.71 77.924 108.669 77.5621 108.405C77.2571 108.183 77.0762 107.831 76.9211 107.485C76.2076 105.841 76.0008 104.026 75.8561 102.237C75.0651 92.3425 76.0525 82.37 77.9292 72.625C78.5547 69.3836 79.2888 66.1214 80.757 63.1643" fill="white"/>
<path d="M87.5966 27.5704C90.4399 28.1598 93.3453 29.173 95.3099 31.3082C96.9797 33.1279 97.7965 35.5732 98.2721 37.9978C98.8046 40.7016 98.9752 43.483 98.7788 46.2333C98.6133 48.5287 98.1687 50.8654 96.9745 52.8299C95.7751 54.7944 94.7257 56.3454 92.4251 56.4436C90.7863 56.5108 88.0825 55.4096 86.7746 54.417C85.4666 53.4245 84.4999 52.5508 83.5538 51.2066C81.0775 47.6808 79.1181 43.6536 78.8028 39.3627C78.4874 35.0717 80.0332 30.481 83.4607 27.8806" fill="#F1A088"/>
<path d="M93.1128 40.1382C93.3299 41.1256 93.5522 42.1233 93.9193 43.0642C94.2863 44.0103 94.8137 44.9099 95.5633 45.5923C95.0721 46.0214 94.2553 46.5849 93.3971 46.6727" fill="#DD8572"/>
<path d="M83.3264 41.079C84.0708 40.7482 86.2732 39.9417 89.3026 40.2725C89.8196 40.3294 90.2642 39.8176 90.0781 39.3316C89.9954 39.1093 89.7783 38.9232 89.3337 38.856C88.0464 38.6647 84.7119 38.856 83.223 40.9498C83.1713 41.0222 83.2488 41.1152 83.3315 41.079H83.3264Z" fill="black"/>
<path d="M98.4944 39.678C98.0033 39.4557 96.5765 38.9543 94.8808 39.647C94.5913 39.7659 94.2397 39.3265 94.2604 38.8354C94.2707 38.6131 94.7257 38.3287 94.9893 38.2719C96.5092 37.9358 98.0653 38.0082 98.5306 39.5333C98.5513 39.6057 98.5461 39.6987 98.4944 39.6729V39.678Z" fill="black"/>
<path d="M90.2849 48.8234L96.2819 48.3374C96.2819 48.3374 94.948 53.259 90.2849 48.8234Z" fill="white"/>
<path d="M88.3773 42.6145C88.3773 43.0487 88.1085 43.4054 87.7828 43.4054C87.4571 43.4054 87.1882 43.0539 87.1882 42.6145C87.1882 42.175 87.4571 41.8235 87.7828 41.8235C88.1085 41.8235 88.3773 42.175 88.3773 42.6145Z" fill="black"/>
<path d="M97.0003 41.8752C97.0003 42.3094 96.7315 42.6661 96.4058 42.6661C96.0801 42.6661 95.8113 42.3146 95.8113 41.8752C95.8113 41.4357 96.0801 41.0842 96.4058 41.0842C96.7315 41.0842 97.0003 41.4357 97.0003 41.8752Z" fill="black"/>
<path d="M81.1034 41.3375C81.1034 41.3375 81.9667 36.7157 86.9142 37.5377C91.8617 38.3597 95.6718 37.2947 97.8793 35.4853C100.087 33.6811 79.6248 23.1709 81.1034 41.3375Z" fill="#DD8572"/>
<path d="M80.6847 46.4401C80.6847 46.4401 80.9949 43.1986 81.1551 40.5362C81.3464 37.4395 82.5458 35.7903 84.7843 35.8731C87.0228 35.9558 99.8904 38.7836 101.803 31.1789C103.716 23.5742 91.8617 21.072 87.7879 24.2566C87.7879 24.2566 81.8996 20.9531 79.3405 27.1258C79.3405 27.1258 67.4087 33.619 80.6898 46.4401H80.6847Z" fill="black"/>
<path d="M81.1913 45.251C80.9121 44.336 79.9454 43.607 78.808 43.4623C78.2859 43.3951 77.7017 43.4571 77.2881 43.7466C76.8177 44.0775 76.6781 44.641 76.7815 45.1321C76.8849 45.6233 77.1899 46.0575 77.4949 46.4814C77.7741 46.8692 78.0481 47.2621 78.3272 47.6498C78.7046 48.1823 79.0924 48.72 79.6507 49.1232C80.209 49.5264 80.9793 49.7849 81.7238 49.6453C82.4682 49.5058 83.1041 49.0508 81.1913 45.2459" fill="#F1A088"/>
<path d="M81.5427 45.9955C81.4083 45.5509 80.9327 45.1942 80.3795 45.1218C80.1262 45.0908 79.8367 45.1218 79.6403 45.2614C79.4128 45.4216 79.3404 45.6956 79.3921 45.9386C79.4438 46.1816 79.5937 46.3884 79.7385 46.5952C79.8729 46.7865 80.0073 46.9778 80.1469 47.1639C80.333 47.4224 80.5191 47.686 80.7931 47.8825C81.0671 48.0789 81.4393 48.203 81.8064 48.1358C82.1683 48.0686 82.4785 47.8463 81.5479 45.9903" fill="#DD8572"/>
<path d="M93.4954 62.8076C97.8483 63.1385 102.522 64.8393 106.244 67.45C106.704 67.7706 107.175 68.1325 107.443 68.6649C107.65 69.0785 107.728 69.5541 107.795 70.0246C109.682 83.0059 110.225 96.1888 110.757 109.336C111.011 115.539 111.264 121.748 111.517 127.952C111.533 128.36 111.543 128.795 111.362 129.146C111.093 129.663 110.509 129.808 109.992 129.906C105.701 130.692 101.369 131.193 97.0263 131.405C96.3129 131.442 95.4703 131.4 95.0618 130.728C94.8809 130.433 94.824 130.061 94.7723 129.704C93.8004 123.237 92.8337 116.759 92.3942 110.214C91.8307 101.767 92.1564 93.2731 92.4821 84.8102C92.7665 77.4742 93.2162 70.1487 93.5006 62.8128" fill="#C8DEEB"/>
<path d="M107.438 68.6649C112.091 74.8273 114.273 81.6411 118.067 88.3618C118.217 88.6254 118.378 88.8994 118.631 89.0649C118.91 89.2458 119.256 89.2768 119.587 89.3027C121.743 89.4629 123.909 89.6232 126.06 89.3906C129.244 89.0494 132.362 87.8551 135.552 88.1291C135.764 88.1498 135.986 88.1757 136.151 88.3101C136.296 88.429 136.374 88.6099 136.441 88.7805C137.511 91.412 138.581 94.0382 139.651 96.6696C139.718 96.8402 139.791 97.0212 139.755 97.1969C139.693 97.4761 139.398 97.6364 139.139 97.7501C134.962 99.6267 130.739 101.514 126.246 102.393C124.452 102.744 122.627 102.93 120.807 103.075C118.347 103.277 115.875 103.406 113.404 103.473C112.965 103.483 112.51 103.489 112.112 103.308C111.626 103.085 111.3 102.625 111.005 102.181C104.445 92.2443 104.817 80.2659 107.443 68.6546" fill="#C8DEEB"/>
<g opacity="0.17">
<path d="M92.1255 95.5995C94.8551 90.2694 97.8019 85.1255 101.529 80.4417C101.664 80.2763 101.798 80.0436 101.679 79.8679C101.622 79.7851 101.519 79.7438 101.426 79.7076C99.5028 78.9735 97.5796 78.2394 95.6513 77.5104C97.2953 75.9181 99.053 74.4344 100.899 73.0799C101.224 72.8421 101.297 72.3924 101.069 72.0615C99.1409 69.2853 97.6261 66.4161 96.4733 63.2419L93.4955 62.8128C93.4955 62.8128 92.2599 87.3537 92.2237 92.022L92.1307 95.5995H92.1255Z" fill="#2E6C9D"/>
</g>
<path opacity="0.17" d="M107.723 102.58L95.9056 103.086C95.7316 103.093 95.5966 103.24 95.6041 103.414L95.7499 106.823C95.7574 106.997 95.9044 107.132 96.0785 107.125L107.896 106.619C108.07 106.612 108.205 106.465 108.198 106.291L108.052 102.882C108.044 102.708 107.897 102.573 107.723 102.58Z" fill="#2E6C9D"/>
<path opacity="0.17" d="M109.754 98.5204C109.754 98.5204 107.976 81.3826 106.601 81.5428C105.226 81.7031 105.267 91.1897 109.754 98.5204Z" fill="#2E6C9D"/>
<path d="M82.644 62.7973C78.2911 63.1281 73.4522 64.8445 69.7299 67.4552C69.2698 67.7757 68.7994 68.1376 68.5305 68.6701C68.3237 69.0837 68.2462 69.5593 68.179 70.0298C66.292 83.0111 65.7492 96.194 65.2167 109.341C64.9634 115.544 64.7101 121.753 64.4568 127.957C64.4412 128.366 64.4309 128.8 64.6118 129.151C64.8807 129.668 65.4649 129.813 65.9818 129.911C70.2727 130.697 74.605 131.199 78.9476 131.411C79.6611 131.447 80.5037 131.405 80.9121 130.733C81.0931 130.439 81.15 130.066 81.2017 129.71C82.1736 123.242 83.1403 116.765 83.5798 110.22C84.1433 101.772 83.8176 93.2783 83.4919 84.8153C83.2075 77.4794 82.9232 70.1383 82.6389 62.8024" fill="#C8DEEB"/>
<g opacity="0.17">
<path d="M83.8953 95.7339C81.1657 90.4039 78.2189 85.2599 74.4915 80.5761C74.3571 80.4107 74.2226 80.178 74.3416 80.0023C74.3984 79.9196 74.5018 79.8782 74.5949 79.842C76.518 79.1079 78.4412 78.3738 80.3695 77.6449C78.6997 76.0267 76.9161 74.5275 75.0446 73.1575C74.7655 72.9507 74.6983 72.563 74.8999 72.2786C76.8541 69.4818 78.4464 66.4264 79.6096 63.2212L82.6494 62.8024C82.6494 62.8024 83.7661 87.4933 83.8074 92.1564L83.9005 95.7339H83.8953Z" fill="#2E6C9D"/>
</g>
<path d="M68.784 68.2876C68.784 68.2876 62.756 76.8952 58.4703 95.1342C54.1845 113.373 55.7199 129.916 55.7199 129.916H65.4288C65.4288 129.916 69.5543 97.1608 69.9575 87.7311C70.3607 78.3066 68.784 68.2824 68.784 68.2824V68.2876Z" fill="#C8DEEB"/>
<path opacity="0.17" d="M67.8276 112.024C67.8276 112.024 73.0388 94.4828 71.6119 85.7511C70.1851 77.0193 67.9569 102.274 67.8276 112.024Z" fill="#2E6C9D"/>
<path d="M82.8509 61.3187C82.1116 61.6444 81.4602 62.1459 80.8553 62.6473C80.1316 63.247 79.4595 63.8932 78.8185 64.5705C77.4485 66.018 76.2749 67.6413 75.3392 69.368C73.4264 72.8938 72.6199 76.8332 72.8732 80.7777C73.018 83.0835 73.4988 85.3633 74.1915 87.5812C74.2742 87.85 74.7188 87.7362 74.6361 87.4674C73.4626 83.6935 72.9094 79.7076 73.5763 75.7992C74.2329 71.9736 76.0475 68.3237 78.6944 65.3615C79.3664 64.6118 80.0799 63.8984 80.845 63.2315C81.5171 62.6473 82.2408 62.058 83.0783 61.6858C83.3472 61.5668 83.1145 61.1946 82.8457 61.3135L82.8509 61.3187Z" fill="#2E6C9D"/>
<path d="M74.083 87.4002C73.7624 87.4829 73.4522 87.6122 73.1679 87.7466C72.4493 88.0774 71.8134 88.5065 71.2913 88.9873C70.4848 89.7318 69.9471 90.5951 69.6214 91.4843C69.1251 92.8285 69.1096 94.2347 69.3164 95.5788C69.6318 97.6622 70.4796 99.6784 71.5187 101.602C71.6842 101.907 71.8548 102.212 72.0306 102.511C72.1339 102.692 72.5579 102.568 72.4493 102.387C71.2964 100.402 70.3245 98.3291 69.8799 96.1733C69.5956 94.793 69.518 93.3558 69.9265 91.9548C70.1849 91.0552 70.6554 90.166 71.4153 89.3957C71.9272 88.8788 72.5113 88.4445 73.2351 88.0878C73.3592 88.0258 73.4833 87.9689 73.6125 87.912C73.6694 87.8862 73.6332 87.9017 73.6539 87.8965C73.6797 87.8862 73.7056 87.8758 73.7366 87.8655C73.7831 87.8448 73.8348 87.8293 73.8865 87.8086C73.9951 87.7673 74.1191 87.7414 74.2277 87.7001C74.2277 87.7001 74.238 87.7001 74.2432 87.7001C74.5172 87.6328 74.3673 87.3433 74.0881 87.4105L74.083 87.4002Z" fill="#2E6C9D"/>
<path d="M70.066 98.9598C70.6037 100.201 71.2034 101.436 71.9168 102.625C72.1339 102.987 72.9714 102.739 72.7543 102.372C72.0409 101.183 71.436 99.9472 70.9035 98.7065C70.7381 98.3291 69.9058 98.5824 70.066 98.9598Z" fill="#2E6C9D"/>
<path d="M73.1059 103.701C72.7233 103.84 72.2684 103.742 72.0926 103.483L71.5756 102.713C71.3999 102.449 71.5705 102.124 71.953 101.979C72.3356 101.839 72.7905 101.938 72.9663 102.196L73.4833 102.966C73.659 103.23 73.4884 103.556 73.1059 103.701Z" fill="#2E6C9D"/>
<path d="M80.2195 101.689C80.9019 99.4871 81.3776 97.2435 81.3207 95.0153C81.2845 93.5781 81.0208 92.1254 80.2816 90.8071C79.7956 89.9437 79.0977 89.1424 78.1413 88.5117C77.5157 88.0981 76.7713 87.7621 75.9545 87.5501C75.5977 87.4571 75.1738 87.3485 74.7809 87.3485C74.7757 87.3485 74.7706 87.3485 74.7654 87.3485C74.4811 87.3382 74.3984 87.6484 74.6827 87.6587C74.7654 87.6587 74.8481 87.669 74.9308 87.6794C75.0291 87.6897 75.1221 87.7052 75.2152 87.7207C75.241 87.7207 75.2669 87.7311 75.2979 87.7363C75.3393 87.7414 75.2772 87.7362 75.3496 87.7466C75.4168 87.7621 75.484 87.7724 75.5512 87.7879C76.3112 87.9585 76.9574 88.2222 77.5623 88.5738C78.4773 89.1062 79.1701 89.8145 79.6612 90.5796C80.4263 91.7738 80.752 93.1025 80.8554 94.4311C81.0157 96.5094 80.6434 98.6186 80.0748 100.687C79.9869 101.007 79.8938 101.328 79.7956 101.643C79.7336 101.845 80.173 101.881 80.235 101.684L80.2195 101.689Z" fill="#2E6C9D"/>
<path d="M80.4522 97.7501C80.2144 99.0736 79.9042 100.397 79.4803 101.705C79.351 102.103 80.2247 102.181 80.354 101.783C80.7779 100.475 81.0881 99.1511 81.3259 97.8276C81.3983 97.4244 80.5246 97.3469 80.4522 97.7501Z" fill="#2E6C9D"/>
<path d="M79.439 103.075C79.8474 103.137 80.2661 102.946 80.3799 102.656L80.7055 101.803C80.8193 101.509 80.5763 101.224 80.1731 101.162C79.7647 101.1 79.3459 101.291 79.2322 101.581L78.9065 102.434C78.7927 102.729 79.0357 103.013 79.439 103.075Z" fill="#2E6C9D"/>
<path d="M93.2938 62.0476C98.1689 63.6244 99.3425 69.3939 99.632 73.8554C99.9835 79.2165 99.1512 84.5723 97.9363 89.7783C97.2487 92.7303 96.4319 95.6563 95.6099 98.5773C95.5323 98.8616 95.9718 98.9857 96.0545 98.7013C97.5641 93.3351 99.0633 87.9327 99.7716 82.3907C100.118 79.6611 100.268 76.9004 100.113 74.1552C99.968 71.591 99.632 68.9493 98.5722 66.5867C97.5692 64.343 95.796 62.3837 93.4179 61.6082C93.1387 61.5151 93.0147 61.9597 93.2938 62.0528V62.0476Z" fill="#2E6C9D"/>
<path d="M96.4422 100.826C98.1411 100.826 99.5182 99.4489 99.5182 97.7501C99.5182 96.0513 98.1411 94.6741 96.4422 94.6741C94.7434 94.6741 93.3662 96.0513 93.3662 97.7501C93.3662 99.4489 94.7434 100.826 96.4422 100.826Z" fill="#125377"/>
<path d="M98.1172 97.7501C98.1172 98.6755 97.3676 99.4303 96.437 99.4303C95.5065 99.4303 94.7568 98.6807 94.7568 97.7501C94.7568 96.8195 95.5065 96.0699 96.437 96.0699C97.3676 96.0699 98.1172 96.8195 98.1172 97.7501Z" fill="#C7DDEB"/>
<path d="M130.49 123.015H49.9968V131.416H130.49V123.015Z" fill="#E1ECF2"/>
<path d="M120.756 128.252C120.756 130.165 119.205 131.716 117.292 131.716C115.379 131.716 113.828 130.165 113.828 128.252C113.828 126.339 115.379 124.788 117.292 124.788C119.205 124.788 120.756 126.339 120.756 128.252Z" fill="#1E85A5"/>
<path d="M117.328 125.295H117.581C118.145 125.295 118.6 125.75 118.6 126.313V127.807C118.6 128.371 118.145 128.826 117.581 128.826H117.328C116.765 128.826 116.31 128.371 116.31 127.807V126.313C116.31 125.75 116.765 125.295 117.328 125.295Z" fill="#FAC620"/>
<path d="M118.977 127.771C118.977 127.833 118.967 127.895 118.962 127.952C118.962 127.967 118.957 128.004 118.951 128.014C118.946 128.05 118.941 128.081 118.931 128.117C118.915 128.205 118.895 128.293 118.869 128.376C118.76 128.753 118.569 129.141 118.233 129.363C117.814 129.637 117.209 129.663 116.77 129.42C116.398 129.219 116.18 128.841 116.056 128.448C115.968 128.164 115.932 127.962 115.927 127.688C115.927 127.399 115.477 127.399 115.477 127.688C115.477 128.443 115.782 129.306 116.423 129.741C116.651 129.896 116.925 129.989 117.209 130.02C117.209 130.371 117.209 130.723 117.209 131.075C117.209 131.137 117.209 131.199 117.209 131.255C117.209 131.374 117.313 131.483 117.431 131.478C117.556 131.473 117.654 131.38 117.654 131.255C117.654 130.842 117.654 130.428 117.659 130.02C117.85 129.999 118.042 129.953 118.212 129.88C118.708 129.663 119.029 129.224 119.215 128.733C119.329 128.433 119.401 128.102 119.417 127.776C119.427 127.487 118.977 127.487 118.967 127.776L118.977 127.771Z" fill="#FAC620"/>
<path d="M93.6506 128.252C93.6506 130.165 92.0997 131.716 90.1869 131.716C88.2741 131.716 86.7231 130.165 86.7231 128.252C86.7231 126.339 88.2741 124.788 90.1869 124.788C92.0997 124.788 93.6506 126.339 93.6506 128.252Z" fill="#1E85A5"/>
<path d="M88.7858 126.432C88.6514 126.36 88.4808 126.386 88.3774 126.494C88.1137 126.768 87.7053 127.373 88.1344 128.19C88.7341 129.332 90.5073 130.284 90.5073 130.284C90.5073 130.284 91.6085 130.785 92.2444 129.503C92.3116 129.363 92.2651 129.193 92.1462 129.094L91.7274 128.753C91.5516 128.614 91.288 128.665 91.1949 128.872C91.0295 129.234 90.7451 129.601 90.3419 129.374C89.8404 129.094 89.2873 128.536 89.0598 128.257C88.9874 128.169 88.9616 128.055 88.9978 127.947C89.0494 127.771 89.1528 127.497 89.3338 127.275C89.4527 127.125 89.4475 126.908 89.3028 126.784C89.1632 126.665 88.9822 126.53 88.7858 126.427V126.432Z" fill="#FAC620"/>
<path d="M66.5454 128.252C66.5454 130.165 64.9945 131.716 63.0817 131.716C61.1689 131.716 59.6179 130.165 59.6179 128.252C59.6179 126.339 61.1689 124.788 63.0817 124.788C64.9945 124.788 66.5454 126.339 66.5454 128.252Z" fill="#1E85A5"/>
<path d="M62.1459 128.252C62.1459 128.541 61.9081 128.779 61.6186 128.779C61.3291 128.779 61.0913 128.541 61.0913 128.252C61.0913 127.962 61.3291 127.724 61.6186 127.724C61.9081 127.724 62.1459 127.962 62.1459 128.252Z" fill="#FAC620"/>
<path d="M63.6037 128.252C63.6037 128.541 63.3659 128.779 63.0764 128.779C62.7869 128.779 62.5491 128.541 62.5491 128.252C62.5491 127.962 62.7869 127.724 63.0764 127.724C63.3659 127.724 63.6037 127.962 63.6037 128.252Z" fill="#FAC620"/>
<path d="M65.0617 128.252C65.0617 128.541 64.8239 128.779 64.5344 128.779C64.2449 128.779 64.0071 128.541 64.0071 128.252C64.0071 127.962 64.2449 127.724 64.5344 127.724C64.8239 127.724 65.0617 127.962 65.0617 128.252Z" fill="#FAC620"/>
</g>
<defs>
<clipPath id="clip0_465_12">
<rect width="250" height="183.744" fill="white"/>
</clipPath>
</defs>
</svg>
