<svg width="20" height="20" viewBox="0 0 20 20" fill="none" xmlns="http://www.w3.org/2000/svg">
<path fill-rule="evenodd" clip-rule="evenodd" d="M8.276 0.255C8.359 0.25 8.447 0.25 8.561 0.25H11.44C11.553 0.25 11.641 0.25 11.725 0.255C12.2446 0.286585 12.7445 0.464982 13.1667 0.769456C13.5889 1.07393 13.916 1.49197 14.11 1.975C14.141 2.052 14.17 2.135 14.205 2.243L14.208 2.253C14.292 2.477 14.483 2.732 14.751 2.936C14.781 2.959 14.811 2.98 14.841 3C16.994 3.003 18.119 3.042 18.893 3.673C19.053 3.803 19.198 3.948 19.327 4.107C20 4.934 20 6.159 20 8.609C20 9.231 20 9.541 19.85 9.784C19.8205 9.83139 19.787 9.87622 19.75 9.918C19.56 10.132 19.263 10.221 18.668 10.4L14 11.8V11C14 10.4696 13.7893 9.96086 13.4142 9.58579C13.0391 9.21071 12.5304 9 12 9H8C7.46957 9 6.96086 9.21071 6.58579 9.58579C6.21071 9.96086 6 10.4696 6 11V11.8L1.332 10.4C0.737 10.221 0.439 10.132 0.25 9.918C0.212992 9.8762 0.179542 9.83138 0.15 9.784C8.9407e-08 9.541 0 9.231 0 8.609C0 6.159 1.19209e-07 4.934 0.673 4.107C0.803 3.947 0.948 3.802 1.107 3.673C1.882 3.043 3.006 3.003 5.16 3C5.19 2.98 5.22 2.959 5.25 2.936C5.517 2.732 5.709 2.476 5.792 2.253C5.83 2.139 5.858 2.053 5.89 1.974C6.08415 1.49116 6.41133 1.07333 6.83351 0.769037C7.25569 0.464748 7.75554 0.2865 8.275 0.255M12.818 2.818C12.842 2.88 12.868 2.94 12.898 3H7.101C7.13 2.94 7.156 2.88 7.181 2.818V2.815L7.186 2.805L7.191 2.793L7.196 2.781L7.199 2.771L7.201 2.766L7.205 2.754L7.209 2.742L7.211 2.736L7.214 2.728L7.216 2.721L7.218 2.715C7.257 2.599 7.269 2.562 7.281 2.534C7.36915 2.31442 7.51781 2.12437 7.7097 1.98594C7.90159 1.84751 8.12883 1.76639 8.365 1.752C8.397 1.75 8.437 1.75 8.58 1.75H11.418C11.561 1.75 11.601 1.75 11.633 1.752C12.115 1.782 12.537 2.086 12.718 2.534C12.728 2.562 12.741 2.597 12.78 2.715L12.782 2.721L12.784 2.728L12.787 2.736L12.789 2.742L12.793 2.754L12.797 2.766L12.799 2.771L12.803 2.781L12.807 2.793L12.812 2.805L12.816 2.815L12.818 2.818ZM12 10.5H8C7.86739 10.5 7.74021 10.5527 7.64645 10.6464C7.55268 10.7402 7.5 10.8674 7.5 11V13.162C7.50002 13.2619 7.52994 13.3594 7.58591 13.4421C7.64187 13.5248 7.72131 13.5889 7.814 13.626L8.514 13.906C9.4679 14.2877 10.5321 14.2877 11.486 13.906L12.186 13.626C12.2787 13.5889 12.3581 13.5248 12.4141 13.4421C12.4701 13.3594 12.5 13.2619 12.5 13.162V11C12.5 10.8674 12.4473 10.7402 12.3536 10.6464C12.2598 10.5527 12.1326 10.5 12 10.5ZM6.01 13.37L1.006 11.868C1.036 14.982 1.218 17.851 2.318 18.828C3.636 20 5.758 20 10 20C14.243 20 16.364 20 17.682 18.828C18.782 17.851 18.964 14.982 18.994 11.868L13.989 13.369C13.9513 13.7314 13.8154 14.0767 13.5958 14.3675C13.3762 14.6583 13.0813 14.8836 12.743 15.019L12.043 15.299C10.7315 15.8237 9.26847 15.8237 7.957 15.299L7.257 15.019C6.9187 14.8836 6.62383 14.6583 6.40424 14.3675C6.18464 14.0767 6.04867 13.7314 6.011 13.369" fill="#0F81C7"/>
</svg>
