<svg width="17" height="20" viewBox="0 0 17 20" fill="none" xmlns="http://www.w3.org/2000/svg">
<path d="M10.376 8.62692C10.4208 9.17627 10.2959 9.72614 10.0183 10.2023C9.74058 10.6784 9.32346 11.0578 8.82325 11.2893C8.32304 11.5207 7.76384 11.5931 7.22118 11.4966C6.67853 11.4001 6.17856 11.1394 5.78882 10.7496C5.39909 10.3599 5.13836 9.85994 5.04185 9.31728C4.94535 8.77462 5.01772 8.21542 5.2492 7.71521C5.48067 7.215 5.86009 6.79788 6.33621 6.52021C6.81232 6.24253 7.36219 6.11767 7.91154 6.1625C8.5478 6.21442 9.14492 6.49074 9.59632 6.94214C10.0477 7.39354 10.324 7.99066 10.376 8.62692ZM16.9231 1.53846V18.4615C16.9231 18.8696 16.761 19.2609 16.4725 19.5494C16.184 19.8379 15.7926 20 15.3846 20H1.53846C1.13044 20 0.739122 19.8379 0.450605 19.5494C0.162087 19.2609 0 18.8696 0 18.4615V1.53846C0 1.13044 0.162087 0.739122 0.450605 0.450605C0.739122 0.162087 1.13044 0 1.53846 0H15.3846C15.7926 0 16.184 0.162087 16.4725 0.450605C16.761 0.739122 16.9231 1.13044 16.9231 1.53846ZM14.2308 3.07692C14.2308 2.87291 14.1497 2.67725 14.0055 2.53299C13.8612 2.38874 13.6656 2.30769 13.4615 2.30769H10.7952C10.5963 2.30453 10.4037 2.3769 10.2561 2.5102C10.1085 2.64351 10.017 2.82782 10 3.02596C9.99301 3.13118 10.0077 3.23672 10.0433 3.33601C10.0788 3.4353 10.1343 3.52623 10.2065 3.60314C10.2786 3.68006 10.3658 3.74132 10.4626 3.78313C10.5594 3.82493 10.6638 3.84639 10.7692 3.84615H11.6048L10.0885 5.3625C9.56917 5.00399 8.97626 4.76618 8.35316 4.66649C7.73006 4.56681 7.09255 4.60776 6.48733 4.78637C5.88211 4.96497 5.32451 5.27669 4.85536 5.6987C4.38622 6.12072 4.01742 6.64233 3.77597 7.22534C3.53452 7.80834 3.42655 8.43797 3.45996 9.06811C3.49336 9.69825 3.6673 10.3129 3.96904 10.8671C4.27077 11.4214 4.69266 11.901 5.20379 12.2711C5.71493 12.6411 6.30236 12.8922 6.92308 13.0058V14.6154H5.02596C4.82712 14.6122 4.63447 14.6846 4.48689 14.8179C4.33931 14.9512 4.24778 15.1355 4.23077 15.3337C4.22378 15.4389 4.23851 15.5444 4.27402 15.6437C4.30954 15.743 4.36509 15.8339 4.43723 15.9108C4.50937 15.9878 4.59655 16.049 4.69336 16.0908C4.79017 16.1326 4.89455 16.1541 5 16.1538H6.92308V17.6663C6.92063 17.8648 6.9933 18.0568 7.12651 18.204C7.25972 18.3511 7.44363 18.4424 7.64135 18.4596C7.74657 18.4666 7.8521 18.4519 7.95139 18.4164C8.05068 18.3808 8.14161 18.3253 8.21853 18.2532C8.29544 18.181 8.35671 18.0938 8.39851 17.997C8.44032 17.9002 8.46177 17.7958 8.46154 17.6904V16.1538H10.3587C10.5572 16.1565 10.7493 16.0839 10.8965 15.9507C11.0437 15.8174 11.1349 15.6334 11.1519 15.4356C11.1589 15.3304 11.1442 15.2248 11.1087 15.1255C11.0732 15.0262 11.0176 14.9353 10.9455 14.8584C10.8733 14.7815 10.7861 14.7202 10.6893 14.6784C10.5925 14.6366 10.4881 14.6152 10.3827 14.6154H8.46154V13.0058C9.15475 12.8772 9.80485 12.5774 10.3527 12.1337C10.9006 11.6899 11.3289 11.1163 11.5987 10.4649C11.8685 9.81357 11.9712 9.1051 11.8976 8.40392C11.8239 7.70274 11.5762 7.03108 11.1769 6.45L12.6923 4.93365V5.74327C12.6894 5.94205 12.7618 6.13457 12.8951 6.2821C13.0283 6.42963 13.2125 6.52123 13.4106 6.53846C13.5158 6.54545 13.6213 6.53073 13.7206 6.49521C13.8199 6.45969 13.9108 6.40414 13.9878 6.332C14.0647 6.25986 14.1259 6.17268 14.1677 6.07587C14.2095 5.97906 14.231 5.87468 14.2308 5.76923V3.07692Z" fill="#0F81C7"/>
</svg>
