<svg width="293" height="62" viewBox="0 0 293 62" fill="none" xmlns="http://www.w3.org/2000/svg">
<g clip-path="url(#clip0_463_4)">
<path d="M67.0564 15.6876C67.0564 7.01179 60.0008 -0.0114133 51.3249 0.000442235C46.5858 0.00676517 42.3503 2.121 39.4741 5.4437C36.598 2.121 32.3632 0.00676517 27.6234 0.000442235C18.9475 -0.0114133 11.8919 7.011 11.8919 15.6876C11.8919 19.6466 12.6056 23.5123 13.7817 27.2215C13.1952 30.2881 11.9551 33.3547 9.4615 35.2192C3.99611 39.3022 1.52588e-05 39.1995 1.52588e-05 39.1995C1.52588e-05 39.1995 8.33207 43.9275 18.18 37.241C26.3185 51.7695 39.4741 62.0008 39.4741 62.0008C39.4741 62.0008 46.5922 56.4556 53.5972 47.7497C66.6138 52.6895 79.0367 46.9119 79.0367 46.9119C79.0367 46.9119 67.4144 44.9534 59.0578 40.1392C63.5598 32.9682 67.0564 24.5485 67.0564 15.6876ZM67.989 46.4361C69.4559 46.6527 73.1208 47.1364 73.1208 47.1364C73.1208 47.1364 69.12 47.4794 65.1413 46.7728C63.9478 46.561 62.7457 46.3982 61.5625 46.1326C59.7145 45.716 57.9056 45.142 56.1556 44.4167C55.5974 44.1843 55.0462 43.9352 54.503 43.6698L54.371 43.6066C53.8842 43.365 53.4045 43.1093 52.9325 42.8399C52.8432 42.7886 52.7539 42.7411 52.6654 42.6898C52.2365 42.4376 51.8149 42.1735 51.4008 41.8978C51.2901 41.8243 51.1779 41.7571 51.0688 41.682C50.5621 41.3372 50.0685 40.9734 49.5892 40.5913C48.706 39.8913 47.8711 39.1324 47.0901 38.3198C46.3057 37.5047 45.5769 36.6378 44.9087 35.725C43.5704 33.8918 42.4607 31.9023 41.6042 29.8004C40.7387 27.7036 40.1183 25.5135 39.7017 23.2657C39.5808 23.5803 39.4567 23.894 39.3492 24.2118C39.1929 24.6647 39.0495 25.122 38.9193 25.583C38.8513 25.7941 38.7897 26.0731 38.7248 26.3197L38.6292 26.7014L38.6055 26.7963L38.5944 26.8492L38.5612 27.0207C38.4648 27.4697 38.3874 27.9391 38.3257 28.422C38.0744 30.3545 38.0175 32.4039 38.0198 34.4446C38.0319 36.4928 38.1131 38.54 38.2633 40.5826L38.9438 49.4885L34.6948 41.6449L30.1999 33.3452L29.3408 39.1418L28.6761 43.6255L25.9517 40.0223C25.6443 39.6168 25.3985 39.2635 25.1337 38.8841C24.8773 38.5116 24.6267 38.1351 24.3821 37.7547C23.8934 36.9976 23.4243 36.228 22.9752 35.4468C22.5282 34.6632 22.1013 33.8684 21.6948 33.0631C21.4956 32.6592 21.2791 32.2229 21.0989 31.8301L20.8278 31.2389L20.5464 30.5884C20.2552 29.8916 19.986 29.1857 19.7394 28.4718C19.6968 28.5904 19.6636 28.7121 19.6185 28.8299C19.4012 29.4061 19.1522 29.9704 18.8914 30.5284C18.6163 31.0816 18.3278 31.6246 18.0054 32.151C17.6782 32.6742 17.3423 33.1919 16.9581 33.6748C16.834 33.8432 16.6973 34.002 16.563 34.1633C16.3021 34.4755 16.0318 34.7798 15.7528 35.073L15.0944 35.7163L14.3926 36.3091C13.9057 36.6782 13.4252 37.056 12.8964 37.3556C12.3859 37.6844 11.8358 37.9373 11.2999 38.2092C8.45932 39.6579 3.64361 39.5528 2.85719 39.4714C3.14963 39.5014 3.50213 39.4208 3.7922 39.39C4.41372 39.3238 5.03114 39.2235 5.64166 39.0896C6.52181 38.8951 7.38748 38.64 8.23248 38.3261C9.16037 37.9831 10.1001 37.5943 10.9585 37.0805C11.8437 36.551 12.5985 35.8578 13.3335 35.1402L13.8844 34.5371L14.3887 33.8969C14.7072 33.4583 15.0202 33.0172 15.2818 32.5414C15.3861 32.3699 15.4778 32.1913 15.571 32.0127C15.7283 31.7123 15.8793 31.4073 16.02 31.0998C16.2413 30.6066 16.431 30.0992 16.6072 29.5902C16.7745 29.0751 16.9221 28.5539 17.0498 28.0277C17.1731 27.4997 17.2806 26.9686 17.3628 26.4327C17.6355 24.6943 17.7137 22.9309 17.596 21.1752C17.5786 20.9064 17.5549 20.6346 17.5264 20.3888C17.5131 20.2733 17.4973 20.1581 17.479 20.0434L17.592 20.0276L18.493 19.9003L21.2419 19.513L21.502 20.7302L21.7912 21.9632C21.9936 22.7828 22.2062 23.6008 22.4385 24.4086C22.9041 26.0209 23.4186 27.6214 24.0501 29.1105L24.2841 29.655L24.5551 30.2462C24.7369 30.6414 24.9084 30.9813 25.0918 31.3559C25.4657 32.0973 25.8616 32.8307 26.2742 33.5555C26.2868 33.5776 26.3011 33.5974 26.3137 33.6187L27.2732 27.1456L28.1102 21.5032L30.8267 26.5188L34.2285 32.7999C34.2569 31.197 34.3391 29.5815 34.5525 27.9249C34.6244 27.3669 34.7169 26.8026 34.8402 26.2256L34.8821 26.0122L34.9137 25.8723L34.939 25.7775L35.0338 25.3957C35.0686 25.2661 35.0971 25.142 35.1295 25.0148C35.1619 24.8875 35.1967 24.7563 35.2401 24.6117C35.3937 24.0628 35.5635 23.5185 35.7491 22.9796C35.9285 22.45 36.1245 21.9268 36.334 21.4099C36.7496 20.3754 37.2198 19.3636 37.7424 18.3789C38.1383 17.6353 38.5642 16.9081 39.0189 16.199C39.1746 15.9603 39.3398 15.7169 39.5334 15.4482L43.8038 9.64055L42.9509 16.7697C42.8466 17.6438 42.8118 18.7298 42.8284 19.7256C42.8442 20.7452 42.9106 21.7679 43.026 22.7859C43.26 24.8203 43.6844 26.8389 44.3333 28.7825C45.6192 32.6679 47.8267 36.2672 50.8997 39.0493C51.3265 39.4413 51.7707 39.8136 52.2267 40.1732C52.3413 40.2633 52.4606 40.3479 52.5768 40.4364C52.9372 40.7099 53.3032 40.9762 53.6778 41.2299C53.79 41.305 53.9031 41.3785 54.0169 41.4512C54.4279 41.72 54.8468 41.9784 55.2736 42.225C55.3479 42.2669 55.4214 42.3104 55.4964 42.3523C57.5081 43.48 59.6395 44.3795 61.851 45.034C64.1051 45.7058 65.6661 46.0931 67.9882 46.4369L67.989 46.4361Z" fill="#0F81C7"/>
<path d="M132.478 13.785V48.6789H124.203V31.8299L117.076 48.6781H110.147L103.118 31.9303V48.6781H94.8441V13.7842H102.77L113.686 38.0098L124.552 13.785H132.478ZM150.872 22.3091C156.754 22.3091 164.978 26.7455 163.333 38.4595H145.238C146.136 41.1515 148.478 42.5465 151.619 42.5465C154.808 42.5465 155.806 41.8494 157.6 41.1017L161.937 45.2883C159.644 47.5313 156.554 49.1769 151.32 49.1769C144.889 49.1769 137.213 44.7397 137.213 35.8173C137.213 26.7455 144.989 22.3091 150.871 22.3091H150.872ZM150.872 29.0383C148.629 29.0383 146.335 30.3345 145.339 32.9269H156.354C155.557 30.3345 153.115 29.0383 150.872 29.0383ZM186.462 13.4365H194.338V48.6781H186.462V46.0857C186.113 46.9836 183.771 49.1761 179.783 49.1761C173.851 49.1761 167.022 44.9397 167.022 35.6687C167.022 26.7455 173.851 22.3091 179.782 22.3091C183.771 22.3091 186.113 24.602 186.462 25.1505V13.4365ZM180.929 42.2477C184.17 42.2477 186.811 40.0047 186.811 35.6679C186.811 31.4805 184.169 29.2375 180.929 29.2375C177.539 29.2375 174.648 31.5311 174.648 35.6679C174.648 39.9549 177.539 42.2477 180.929 42.2477ZM221.105 13.785H229.131V48.6789H221.105V34.8712H207.896V48.6789H199.87V13.7842H207.896V27.4924H221.105V13.785ZM244.134 49.0765C239.299 49.0765 234.365 45.836 234.365 37.6122V22.7581H242.24V37.0637C242.24 41.0013 243.586 42.2485 246.078 42.2485C249.618 42.2485 251.662 38.808 252.16 37.3127V22.7581H260.036V48.6781H252.16V44.192C251.662 45.4376 249.019 49.0765 244.134 49.0765ZM279.675 22.3091C285.607 22.3091 292.436 26.7455 292.436 35.6679C292.436 44.9389 285.607 49.1761 279.675 49.1761C275.687 49.1761 273.345 46.9836 272.996 46.0857V48.6781H265.12V13.4365H272.996V25.1497C273.345 24.602 275.687 22.3091 279.675 22.3091H279.675ZM278.529 42.2477C281.918 42.2477 284.81 39.9549 284.81 35.6679C284.81 31.5311 281.918 29.2375 278.529 29.2375C275.288 29.2375 272.647 31.4805 272.647 35.6679C272.647 40.0047 275.289 42.2477 278.529 42.2477H278.529Z" fill="#111111"/>
</g>
<defs>
<clipPath id="clip0_463_4">
<rect width="292.436" height="62" fill="white"/>
</clipPath>
</defs>
</svg>
